/* XPM */
static char *result[] = {
/* columns rows colors chars-per-pixel */
"64 64 245 2 ",
"   c #0E0C09",
".  c #0E0A06",
"X  c #120A05",
"o  c #130D0A",
"O  c #1B0E0A",
"+  c #150905",
"@  c #16110D",
"#  c #1B130D",
"$  c #1D1610",
"%  c #1F1811",
"&  c #23140E",
"*  c #26180F",
"=  c #31180E",
"-  c #231512",
";  c #241B13",
":  c #2B1C13",
">  c #2B1D1A",
",  c #271C19",
"<  c #331D14",
"1  c #3C1E1B",
"2  c #361B17",
"3  c #230E0A",
"4  c #2C231A",
"5  c #2A2219",
"6  c #342115",
"7  c #3B2317",
"8  c #34241A",
"9  c #3B251B",
"0  c #3C2A1D",
"q  c #342A1E",
"w  c #3C2C23",
"e  c #382826",
"r  c #3D3127",
"t  c #3D3232",
"y  c #3D1F24",
"u  c #43241B",
"i  c #422A1D",
"p  c #4A2A1D",
"a  c #4F311F",
"s  c #492524",
"d  c #442D22",
"f  c #4A2D23",
"g  c #4D2B2A",
"h  c #472528",
"j  c #532B29",
"k  c #453224",
"l  c #4C3225",
"z  c #45342B",
"x  c #4C3529",
"c  c #4C3A2C",
"v  c #473927",
"b  c #533425",
"n  c #54352A",
"m  c #5A362B",
"M  c #543A2C",
"N  c #5B3B2C",
"B  c #583726",
"V  c #4D3B32",
"C  c #473534",
"Z  c #543D33",
"A  c #5C3D32",
"S  c #5A3439",
"D  c #613C2B",
"F  c #633E32",
"G  c #693A3E",
"H  c #411A12",
"J  c #54422A",
"K  c #5B422E",
"L  c #4D4236",
"P  c #5C4134",
"I  c #5D4B32",
"U  c #544439",
"Y  c #584739",
"T  c #5D513B",
"R  c #63412E",
"E  c #644333",
"W  c #6A4534",
"Q  c #6C4936",
"!  c #64443B",
"~  c #6A463A",
"^  c #63493B",
"/  c #6C4A3B",
"(  c #624C34",
")  c #734E3C",
"_  c #754938",
"`  c #63533B",
"'  c #6A553A",
"]  c #74523D",
"[  c #7A513D",
"{  c #693D48",
"}  c #573C44",
"|  c #5B4943",
" . c #5F5546",
".. c #6C4C42",
"X. c #664946",
"o. c #724F43",
"O. c #784749",
"+. c #6C534A",
"@. c #695946",
"#. c #745343",
"$. c #7B5442",
"%. c #725C43",
"&. c #7C5944",
"*. c #745449",
"=. c #7A554D",
"-. c #735A4C",
";. c #7C5B4B",
":. c #7A4B57",
">. c #7C5D53",
",. c #785657",
"<. c #6B575B",
"1. c #6B614C",
"2. c #74644B",
"3. c #7C6A4C",
"4. c #776547",
"5. c #6E6352",
"6. c #6F6459",
"7. c #736555",
"8. c #736A56",
"9. c #756C5A",
"0. c #7B6E5D",
"q. c #7A6854",
"w. c #7C715E",
"e. c #7F7156",
"r. c #7E7462",
"t. c #7B6664",
"y. c #82523F",
"u. c #825A44",
"i. c #845D4A",
"p. c #885A47",
"a. c #845E56",
"s. c #905E4A",
"d. c #85614B",
"f. c #8C634B",
"g. c #8A6348",
"h. c #92674E",
"j. c #836254",
"k. c #84655B",
"l. c #896758",
"z. c #946B54",
"x. c #9A6C54",
"c. c #9C6E59",
"v. c #946A57",
"b. c #8B7B5D",
"n. c #867659",
"m. c #9B7155",
"M. c #9C735C",
"N. c #94755B",
"B. c #83744E",
"V. c #A1745D",
"C. c #A2795C",
"Z. c #A06F5D",
"A. c #825A64",
"S. c #8A6C63",
"D. c #8D6D6B",
"F. c #866865",
"G. c #946B66",
"H. c #827663",
"J. c #8C7366",
"K. c #837A64",
"L. c #8B736B",
"P. c #857C69",
"I. c #8A7D6B",
"U. c #8A7D63",
"Y. c #927165",
"T. c #9C7563",
"R. c #92736C",
"E. c #9D7B6C",
"W. c #987968",
"Q. c #8E7874",
"!. c #947572",
"~. c #957B74",
"^. c #987B79",
"/. c #8E6972",
"(. c #A37661",
"). c #A47B64",
"_. c #A37D6C",
"`. c #A97E68",
"'. c #A27D77",
"]. c #8B826D",
"[. c #8B8165",
"{. c #958362",
"}. c #93856C",
"|. c #9D8B6A",
" X c #8E8572",
".X c #8F8874",
"XX c #928673",
"oX c #938A75",
"OX c #968D7A",
"+X c #998678",
"@X c #9B927C",
"#X c #9A9278",
"$X c #A3816D",
"%X c #AC836C",
"&X c #AC8267",
"*X c #A68373",
"=X c #AB8473",
"-X c #AC897A",
";X c #AA8778",
":X c #B38D7C",
">X c #B38A75",
",X c #A1947D",
"<X c #A69575",
"1X c #B8917D",
"2X c #B1886D",
"3X c #92805B",
"4X c #997D82",
"5X c #9D8483",
"6X c #9C8788",
"7X c #9D9582",
"8X c #9E9A86",
"9X c #A58B86",
"0X c #AD9284",
"qX c #A39A84",
"wX c #A69A89",
"eX c #B59485",
"rX c #BA9583",
"tX c #B7978A",
"yX c #A48E93",
"uX c #A59495",
"iX c #AB9694",
"pX c #AB9B9C",
"aX c #AA979A",
"sX c #B59A95",
"dX c #ADA38B",
"fX c #ABA597",
"gX c #BCA39B",
"hX c #B4AC9C",
"jX c #B6A998",
"kX c #B5AC95",
"lX c #AC9DA3",
"zX c #B09FA3",
"xX c #B8A7A6",
"cX c #BCB5A7",
"vX c #B7A7AD",
"bX c #C29D8C",
"nX c #C19F92",
"mX c #C8A497",
"MX c #CEA898",
"NX c #C6ABA3",
"BX c #C7B6AC",
"VX c #D6BCB3",
"CX c #C9B2B3",
"ZX c #DFC4BB",
"AX c None",
/* pixels */
"AXAXAXAXAXAXAXAXAXAXAXAXAXAXAXAXAXAXAXAXAXAXAXAXq q k a J I ' 3.b.4.AXAXAXAXAXAXAXAXAXAXAXAXAXAXAXAXAXAXAXAXAXAXAXAXAXAXAXAXAXAX",
"AXAXAXAXAXAXAXAXAXAXAXAXAXAXAXAXAXAXAXAX$ AX% 5 4 v I ' ' %.' I %.B.n.%.' I M %.4.AXAXAXAXAXAXAXAXAXAXAXAXAXAXAXAXAXAXAXAXAXAXAX",
"AXAXAXAXAXAXAXAXAXAXAXAXAXAXAXAXAXAXAX@ @ @ @     # 5 q I 3.B.n.3.` %.b.B.4.' ( 4.4.AXAXAXAXAXAXAXAXAXAXAXAXAXAXAXAXAXAXAXAXAXAX",
"AXAXAXAXAXAXAXAXAXAXAXAXAXAXAXAXAXL e @               % J I ( ' N.{.%.' 3XN.b.3.' 4.3.4.AXAXAXAXAXAXAXAXAXAXAXAXAXAXAXAXAXAXAXAX",
"AXAXAXAXAXAXAXAXAXAXAXAXAXAX5 4 v T t % @ @         .   # q J a J 4.|.3.4.|.3X{.b.' 4.3.2.@.AXAXAXAXAXAXAXAXAXAXAXAXAXAXAXAXAXAX",
"AXAXAXAXAXAXAXAXAXAXAXAX4 5 5 4 w Y T q ; % @ @ @     .     ; v J J 4.{.3.3X<X3X{.b.%.3.3.2.AXAXAXAXAXAXAXAXAXAXAXAXAXAXAXAXAXAX",
"AXAXAXAXAXAXAXAXAXAXAX5 % 5 5 6 q Y ` L z r q : 5 % # @ o   . # q J T 1.3Xn.|.<Xb.<X3X%.3.e.2.e.AXAXAXAXAXAXAXAXAXAXAXAXAXAXAXAX",
"AXAXAXAXAXAXAXAXAXq ; % & ; : 5 k Y %.%.*.` T c v w q 5 ; # o     5 T ` 2.#X|.dX,X}.<Xb.` e.e.8.J.AXAXAXAXAXAXAXAXAXAXAXAXAXAXAX",
"AXAXAXAXAXAXAXAXq % ; % ; ; 6 w P 4.h.v.T.W.`.M.l.;./ M v 0 : & o @ 5 I T n.qXwXjX,X#X,X2.` e.n.J.AXAXAXAXAXAXAXAXAXAXAXAXAXAXAX",
"AXAXAXAXAXAXAX4 % ; % # % 6 v I $.M.%X>X1X1XbXbXmXrX|.d.) E b i 6 & ; 5 L ` wXfXjXNX#XdX#X1.` b.P.I.AXAXAXAXAXAXAXAXAXAXAXAXAXAX",
"AXAXAXAXAXAXAX; & & # & 8 c ] l.).2X>X1XbXmXMXMXMXMXbX=Xv.i.) P B 0 < * w v w.fXhXBXwX@XkXn.T 1.I.H.I.AXAXAXAXAXAXAXAXAXAXAXAXAX",
"AXAXAXAXAXAX5 & % # ; q J ' h.&X&X2X2X1XrXbXmXmXbXbXbXrX*X_.v.&.' I a 0 : 8 | 7XfXcXhXqXkXdX1.1.H.I.K.XXAXAXAXAXAXAXAXAXAXAXAXAX",
"AXAXAXAXAXw & # # : q c ] B.C.C.C.&X&X%XeXrXeXrXrXrXrX1X1X>X$Xm.h.u.' N i : k ].8XhXcXfXhXcXOX8.0.K.K.XX XAXAXAXAXAXAXAXAXAXAXAX",
"AXAXAXAXAX4 # # * 6 v ( d.h.m.C.V.C.C.)._.-X:X:X1X:X:X-X1X1X%X_.M.h.d.' P i 6 8.fX8XcXfX8XhXcXP.0.H.I..XoXAXAXAXAXAXAXAXAXAXAXAX",
"AXAXAXAXAX5 # & : 0 J [ g.h.m.m.m.m.c.M._._._.;X>X;X;X-X-X-X;X=XT.m.h.u.Q M 6 Y 7X7XhXcX#X8XcX@X8.9.I..XoXoXAXAXAXAXAXAXAXAXAXAX",
"AXAXAXAXr & # & : k ( u.g.h.x.x.m.x.x.v.T._.E.T.`.=X*X*X*X_._._.E.N.m.d.] P i d P.7XfXcX8XoXkXfXr.6.H. X XoXAXAXAXAXAXAXAXAXAXAX",
"AXAXAXAX5 # # & 6 v Q u.g.h.x.x.x.m.m.M._._._.E.)._.$X$X|.E.+X_.'.(.W.v.&.W l 9 w. X@XcXdX].wXhX.X6.r..X]..X.XAXAXAXAXAXAXAXAXAX",
"AXAXAXr # # # & q K ] 4.g.h.x.x.x.x.m.T._.>X;X=X_._.$X$XW.'.*X-X;X9X;XR.d./ b 7 5.P.r.hXhX X XfX7Xr.r. X X.XOXr.AXAXAXAXAXAXAXAX",
"AXAXAXq @ @ # 6 k Q [ u.g.h.h.h.x.m.C.).=X>X:X-X;X=X*X*X_.;X0X0X0XiXiX;Xl.*.M 7 @.w.8.dXkX@X9.wX8Xr.r. Xr. X.XP.AXAXAXAXAXAXAXAX",
"AXAXAX5   @ & 6 N [ u.u.g.h.h.h.x.m.&X&X=X=X=X$X%X*X-X*X;X0XeXeXtXsXgXiX~.%.R 7 J 9.1.@XkXqX5..X8X Xr.].6.P. XK.AXAXAXAXAXAXAXAX",
"AXAXr @   # ; 0 ( y.g.u.g.g.h.m.C.T.T.T.G.v.N.N.M.T.E._.*X;X*X;X0XsXxXpXoXq.W 0 v 2.I #XqX#X8.K.oXOXr. X9.r.].9.w.AXAXAXAXAXAXAX",
"AXAXr @ o @ : v ] [ y.g.g.g.p.&./ ^ N M P Y ..;.l.j.l.m.T.T.k.q.S.+XiXpX5Xj.^ i q ` J #X#XXXr.K.r.OXr.].r.6.r.5.9.AXAXAXAXAXAXAX",
"AXAX4 @ X # 7 E ] u.i.u._ D M i 7 6 * & - 8 k I &.&.d.z.z.d.E M M | <.XX5X0.( w q J J #X}.I.].K.9..X].]. X9.r.5.7.1.AXAXAXAXAXAX",
"AXAX;     % k Q &.y.] R R R E b i 7 2 < < < 7 x Q #.i.f.d.] k < : , 8 z | +.P k 6 v v }.}.K.XXr.1.r.P.]. Xw.9.w.7.0.AXAXAXAXAXAX",
"AXAX#     5 B ) [ ) R R Q / ) ~ E R N b f p u k R ) $.p.d.R i 6 = - & * 6 d V z : 0 a [.oX[.XX].1.1.r.[.].r.w.r.5.K.+.AXAXAXAXAX",
"AXAX@   @ 7 R ' ] Q R R ~ o.] / Q ^ Q ~ E m f l N W _ $.l.#.c d d u i d k U +.+.k 0 v 8.oX}.oX.X.X .8.r.K.[.w.r.+.H.w.AXAXAXAXAX",
"AXAX@   % a Q [ ] E M K P A A M x k k l A P M b D ) u.l.W.k.A x x n P X.*.7.k.0.K i J @.oX].oX#X.Xw.1.e.r.K.r.[.1.9.w.6.AXAXAXAX",
"AXAX$   ; B ) [ Q m n M f c U | Y X.Y Z v M b x ~ j._._.0XL.S x l d k Z ^ +.>.>.J 7 v ` }.[.oX#XOX.X8.8.K.K.r.].6.6.@.H.AXAXAXAX",
"AXAX% o 5 I [ 4.Q N M d 9 5 $ $ > w w z c x k x / T.tXsXsX*XZ 9 0 w z Z | +.X.L d < k I b.b.].#X.X.XP.r.[.].[.K.r.r.5.7.q.AXAXAX",
"AXAX5 @ e #.d.d.] E m k < # o $ > C z 8 2 d M P ;.%XMXMXNX6X| 9 > - @ $ 4 r V z 6 * 0 ( B.3XU.#X8X X.X[.].}.r.r.H.K.I.5.w.7.AXAX",
"AX1.5 $ r &.f.z.v.&./ ^ M k r z z V Z U Z Z ..#.N.rXNXNXxX9X<.w * - $ # 5 t 5 & & O ; I 4.3Xn.oXdXoX.Xr.[.oXK.K.P.K.oXr.<.K.AXAX",
".Xr.r ; M d.m.&X&XE.l.&.~ P P Z P ! ......#.#.a._.bXVXVXNX0XJ.+.U Z V C Z U Z w < & # J ` n.[.[.@X8X.X.XK.P.P.r.].r. X[.-.w.I.AX",
"0.l.E 9 P d.M.&X%X2X`.c.&./ E W / $.#.[ y.p.s.Z.`.nXVXVXNXgX9XD.-.X.^ ^ ..*.-.^ f 2 * i ( e.}.U.#XwX,X#XOXI.P.r. Xw.I. Xw.6.Q.AX",
"n p B f E i.m.).`.%X=X).m.d.i.&.$.[ u.f.h.x.Z.Z.'.mXZXVXNXgXgX9XXXk.-.*.....~ E n i 2 6 K %.{.+X].,XdXqXOXOX Xr. XK.P.OXr.9.H.P.",
"j 2 p f P *.f.c.V.`.2X2X%X_.(.M.T.T.).V.V.V.x.V.1XMXZXVXBXNXNXNXsX9X+XY.Y.Y.k.;./ A b i i ( 3.,X#X#XqXwXOX7XqX]..XoX.X7XP.6.0.AX",
"B u b l M ~ #.p.h.c.V.(.(.).`.&X=X2X>X`.c.p.s.V.bXVXVXVXBXgXsXnXgXtX0X-X9X;X9X_.N.;.W b 7 i I n.,XwX#XqX8XOXwXOXoXOX.X7X.X9.5.AX",
"N f D n x A P ) $.p.p.s.x.c.V.).`.`.).x.y.y.s.Z.Z.>XrXNXCXsX0X!.'.rXrXrXeX0XiXiXyX!.o.m u = 0 ( b.dXdX#XqX@XOXoXOX#X.X@XOXK.AXAX",
"N b A f l n x N F _ u.p.s.x.c.Z.V.x.s.[ _ s.x.F m G i.A.^.sXgXG.p.Z.eXbXeXsXsXCXCX9X*.m u = & 6 T n.dXdXqX7X X]..X#X.XoX@XI.AXAX",
"A P A f x x f f B F G u.y.g.s.s.s.y._ D F y.b 1 u s s S X.,.'.R.G O.G.4XtXsXxXCXvXyX=.B u = 3 + 5 ` 3XdXdX,X].[.[.OX].[.OX.XAXAX",
"AX~ ! b Z x p p b D D G _ y.y.y.y.G D b D H 3 O 3 2 u s - - g O.B D u.G.'.4XyXlXuX^.=.B u = O X X ; AXAXAX#X[.[.[. X].K. XAXAXAX",
"AX....n Z x d f b m N F F _ _ _ _ D a D W p 2 1 1 1 f X.X.S S ,.D j D O.a./.'.4X4X!.a.m u = O X O O AXAXAXAXU.U.K.[.}.r.AXAXAXAX",
"AX/ #.#.P M f k b n N F F F W R D a B [ p.D m n j s n ,.^.6XyX6X$.a B W u.a./.!.!.!.a.F u = O + # AXAXAXAXAXAXn.e.U.oXK.AXAXAXAX",
"AX%.&.;.~ N l l b n n A F E D N B B D s.s.o.~ ~ ..X.G ,.4XyXlXlX^.W B D _ ,.S.R.!.R.a.G p = O O : AXAXAXAXAXAXAXAXAX#XAXAXAXAXAX",
"AXAXj.] W F b b n n n N F D D N B D y.h.v.u.$.,.a.F.a.D.9XlXlXlXpXF.F m F =.F.D.!.D.a.E p : O # e AXAXAXAXAXAXAXAXAXAXAXAXAXAXAX",
"AXAXj.) W W n b n b M N N N R N D R u.l.a.O.~ ! { X.:.,.4X4XlXvXxX9XO.m E =.k.S.D.D.a...j = O ; AXAXAXAXAXAXAXAXAXAXAXAXAXAXAXAX",
"AXAX%.A A P A n n n b m N N D N D F #.o.F j s s h h S S } { A.4XzXaX0.E F >.F.F.D.D.F.o.b < O $ AXAXAXAXAXAXAXAXAXAXAXAXAXAXAXAX",
"AXAXz : : n S n M m N N D N N N B D A s y 2 2 1 y y h t y y h { /.6XL...! >.S.!.!.D.S.=.m < O AXAXAXAXAXAXAXAXAXAXAXAXAXAXAXAXAX",
"AXAX# X X k Z n M N K R R R R N m n 1 = - > t Z } } <.<.} t y t X./.F.*...a.R.^.!.!.G.a.N < O AXAXAXAXAXAXAXAXAXAXAXAXAXAXAXAXAX",
"AXAXo . . e Z M n m A E E E R K b i : O X o @ , , , t t , , $ - y ,.k.#.#.k.Q.!.^.~.R.>.b : O AXAXAXAXAXAXAXAXAXAXAXAXAXAXAXAXAX",
"AXAXAXAXO 8 c n M N N E W Q E M f 2 O X $ , > , > e t t e $     - V +...o.S.!.+X~.~.Y.-.f : O AXAXAXAXAXAXAXAXAXAXAXAXAXAXAXAXAX",
"AXAXAXAXAXAXk n n N N N E Q Q a i s h e C G { :.:.A.t.:.:.:.:.} X.,.+.A / S.+X^.+X!.S.~ f AXAXAXAXAXAXAXAXAXAXAXAXAXAXAXAXAXAXAX",
"AXAXAXAXAXAXw l b M N R Q Q R b x m j n S G { O.{ { :.:.:./.4X/././.>.N ~ k.^.+X~.!.j.E AXAXAXAXAXAXAXAXAXAXAXAXAXAXAXAXAXAXAXAX",
"AXAXAXAXAXAX8 k b M m N R Q R R E F j j s s s s S j j S { :.,.t.F.^.D.A ~ S.+X+X~.!.*.A AXAXAXAXAXAXAXAXAXAXAXAXAXAXAXAXAXAXAXAX",
"AXAXAXAXAXAXAXw d v b B N R ) ] / A n f u H 1 1 y h s s s S +.t./.6X5X,.*.J.Q.~.~.v.o.AXAXAXAXAXAXAXAXAXAXAXAXAXAXAXAXAXAXAXAXAX",
"AXAXAXAXAXAXAXAXi f l b B R ) ] ) W N b n A ! o.a.G.R./.L.F.t.L.4X7XiX5XS.R.R.R.Y.a.AXAXAXAXAXAXAXAXAXAXAXAXAXAXAXAXAXAXAXAXAXAX",
"AXAXAXAXAXAXAXAXAXu f l b N Q ] $.) W W ~ ) i.v.T.'.eXvXvXzXuXyXyXuXpX9XXX!.Y.Y.k.o.AXAXAXAXAXAXAXAXAXAXAXAXAXAXAXAXAXAXAXAXAXAX",
"AXAXAXAXAXAXAXAXAXAXi f b b N W ] [ u.[ Q Q ) #.=.a.!.aXlXlXpXpXpXpXiX9XW.J.J.k.=.AXAXAXAXAXAXAXAXAXAXAXAXAXAXAXAXAXAXAXAXAXAXAX",
"AXAXAXAXAXAXAXAXAXAXAXi f f b R Q _ i.p.[ _ ) ~ / *.>.!.yXlXaXaXuXuX6X~.L.J.k.>...AXAXAXAXAXAXAXAXAXAXAXAXAXAXAXAXAXAXAXAXAXAXAX",
"AXAXAXAXAXAXAXAXAXAXAXAXAXAXd b K Q $.p.$./ D A N E ! ,.Q.uXaXuXuX6X6XL.k.0.7...AXAXAXAXAXAXAXAXAXAXAXAXAXAXAXAXAXAXAXAXAXAXAXAX",
"AXAXAXAXAXAXAXAXAXAXAXAXAXAXAXAXAXAXE ~ W N f f s x V U +.Q.6XyX6XXXI.F.>.-...AXAXAXAXAXAXAXAXAXAXAXAXAXAXAXAXAXAXAXAXAXAXAXAXAX",
"AXAXAXAXAXAXAXAXAXAXAXAXAXAXAXAXAXAXAXAXf 9 7 2 6 d d w e V <.F.F.k.7.+.| U AXAXAXAXAXAXAXAXAXAXAXAXAXAXAXAXAXAXAXAXAXAXAXAXAXAX",
"AXAXAXAXAXAXAXAXAXAXAXAXAXAXAXAXAXAXAXAXAX: < 2 < 6 d w < 8 l X.@.X.U c AXAXAXAXAXAXAXAXAXAXAXAXAXAXAXAXAXAXAXAXAXAXAXAXAXAXAXAX",
"AXAXAXAXAXAXAXAXAXAXAXAXAXAXAXAXAXAXAXAXAXAXAX: : : < 2 < < 8 z t k AXAXAXAXAXAXAXAXAXAXAXAXAXAXAXAXAXAXAXAXAXAXAXAXAXAXAXAXAXAX",
"AXAXAXAXAXAXAXAXAXAXAXAXAXAXAXAXAXAXAXAXAXAXAXAXAXAXAXAXAXAXAXAXAXAXAXAXAXAXAXAXAXAXAXAXAXAXAXAXAXAXAXAXAXAXAXAXAXAXAXAXAXAXAXAX"
};
