/* XPM */
static char *result[] = {
/* columns rows colors chars-per-pixel */
"64 64 237 2 ",
"   c #3C1E08",
".  c #3E210B",
"X  c #452B0E",
"o  c #45260E",
"O  c #5D3B0E",
"+  c #4B2C13",
"@  c #492C16",
"#  c #4C3214",
"$  c #4B341C",
"%  c #473111",
"&  c #543916",
"*  c #52351C",
"=  c #5C361C",
"-  c #563A1C",
";  c #5C3C1C",
":  c #583715",
">  c #513013",
",  c #6A2C1C",
"<  c #642A17",
"1  c #61371E",
"2  c #623B1D",
"3  c #673B18",
"4  c #71371E",
"5  c #4D3721",
"6  c #4D3A23",
"7  c #543C24",
"8  c #5B3D23",
"9  c #563E28",
"0  c #583B24",
"q  c #633D24",
"w  c #6A3E24",
"e  c #663A26",
"r  c #7C3D2A",
"t  c #763A24",
"y  c #5E411E",
"u  c #63431E",
"i  c #6B431E",
"p  c #6C491E",
"a  c #664314",
"s  c #724D1A",
"d  c #76531C",
"f  c #5C4224",
"g  c #5D432A",
"h  c #574227",
"j  c #634323",
"k  c #6B4325",
"l  c #6C4A25",
"z  c #63452B",
"x  c #6D442A",
"c  c #65492C",
"v  c #6C4D2C",
"b  c #664925",
"n  c #734425",
"m  c #7A4325",
"M  c #724D24",
"N  c #73462B",
"B  c #7B442B",
"V  c #734B2D",
"C  c #7B4B2D",
"Z  c #794B26",
"A  c #6E522C",
"S  c #735126",
"D  c #7A5423",
"F  c #74532B",
"G  c #7B542D",
"H  c #7B592D",
"J  c #7B5B29",
"K  c #654A31",
"L  c #6C4D33",
"P  c #664730",
"I  c #754C31",
"U  c #7B4E32",
"Y  c #7D4632",
"T  c #6D5235",
"R  c #6B5336",
"E  c #735433",
"W  c #7D5234",
"Q  c #765A34",
"!  c #7C5B32",
"~  c #72563B",
"^  c #7B5C3A",
"/  c #76573A",
"(  c #7E613C",
")  c #7B6034",
"_  c #785C43",
"`  c #7B6345",
"'  c #83401F",
"]  c #82442C",
"[  c #834C2E",
"{  c #8C4C2C",
"}  c #8E4A26",
"|  c #8D522E",
" . c #855D2A",
".. c #85562C",
"X. c #844E31",
"o. c #8A4C33",
"O. c #824533",
"+. c #845333",
"@. c #8C5434",
"#. c #835C35",
"$. c #8C5936",
"%. c #845539",
"&. c #8B5639",
"*. c #845C3A",
"=. c #8D5B3A",
"-. c #915633",
";. c #935936",
":. c #93563A",
">. c #935D3B",
",. c #9A5D3B",
"<. c #995936",
"1. c #A15F3F",
"2. c #85612B",
"3. c #8A632B",
"4. c #846235",
"5. c #8A6333",
"6. c #84643B",
"7. c #8C633C",
"8. c #846A3E",
"9. c #8C6A3C",
"0. c #8D6A35",
"q. c #946C35",
"w. c #95613E",
"e. c #9A623E",
"r. c #926C3A",
"t. c #986E34",
"y. c #9B7237",
"u. c #94713B",
"i. c #9A743B",
"p. c #99783B",
"a. c #926A2F",
"s. c #A6653F",
"d. c #A1783E",
"f. c #8D5D41",
"g. c #925E41",
"h. c #9A5D42",
"j. c #856543",
"k. c #8C6441",
"l. c #876A43",
"z. c #8B6B43",
"x. c #8C6E4A",
"c. c #936242",
"v. c #9C6542",
"b. c #926D43",
"n. c #9D6942",
"m. c #9D6A4B",
"M. c #946A49",
"N. c #8F734A",
"B. c #8D7443",
"V. c #947343",
"C. c #9B7544",
"Z. c #9B7942",
"A. c #92754D",
"S. c #9C7549",
"D. c #997B4B",
"F. c #9C7E53",
"G. c #947E52",
"H. c #9F6850",
"J. c #A36543",
"K. c #A96644",
"L. c #A36B45",
"P. c #AC6B46",
"I. c #A56D4A",
"U. c #AC6D4A",
"Y. c #A46549",
"T. c #B16E4B",
"R. c #B26D45",
"E. c #A27C44",
"W. c #A7734B",
"Q. c #AC734C",
"!. c #A37C4A",
"~. c #AA7648",
"^. c #B4744D",
"/. c #B9754E",
"(. c #B2784E",
"). c #B6764C",
"_. c #A86B53",
"`. c #AD7552",
"'. c #A37D52",
"]. c #AC7B53",
"[. c #B47551",
"{. c #B97652",
"}. c #B47A52",
"|. c #BA7B54",
" X c #B57B5A",
".X c #BC7D5A",
"XX c #B57559",
"oX c #C17C55",
"OX c #C17E59",
"+X c #9B814B",
"@X c #9A8254",
"#X c #9B8658",
"$X c #AB8244",
"%X c #A4814A",
"&X c #AA824C",
"*X c #A98548",
"=X c #AA8657",
"-X c #BD8154",
";X c #B58E52",
":X c #BE815B",
">X c #B58A58",
",X c #B89357",
"<X c #B38C4C",
"1X c #BC8361",
"2X c #B68060",
"3X c #B89362",
"4X c #AF8F65",
"5X c #C28356",
"6X c #C4845B",
"7X c #CA855D",
"8X c #C7885E",
"9X c #CA895D",
"0X c #C49B5C",
"qX c #C09759",
"wX c #C48561",
"eX c #CA8661",
"rX c #C68961",
"tX c #CB8B62",
"yX c #CD8D69",
"uX c #D28C63",
"iX c #D18F69",
"pX c #D19066",
"aX c #D4926C",
"sX c #DA956E",
"dX c #DA9167",
"fX c #DA9671",
"gX c #DD9B74",
"hX c #D59370",
"jX c #E49C74",
"kX c #E29F79",
"lX c #E0976E",
"zX c #CBA162",
"xX c #D3AC6C",
"cX c #D1A766",
"vX c #E9A177",
"bX c #F1A77D",
"nX c None",
/* pixels */
"nXnXnXnXnXnXnXnXnXnXnXnXnXnXnXnXnXnXnXnXnXnXnXnXnXnXnXnXj.j.k.k.z.l.z.6.6.x.nXnXnXnXnXnXnXnXnXnXnXnXnXnXnXnXnXnXnXnXnXnXnXnXnXnX",
"nXnXnXnXnXnXnXnXnXnXnXnXnXnXnXnXnXnX` nXnXnXnX^ / Q Q / ^ #.! G #.4.#.G F G #.#.H +.6.#.5.S.nXnXnXnXnXnXnXnXnXnXnXnXnXnXnXnXnXnX",
"nXnXnXnXnXnXnXnXnXnXnXnXnXnXv c c T ( x.A.=X4X@X6.M V #.C.S.C.!.&X&X&X!.%Xu.5.2.5.a.t. .5.E.!.!.C.0.nXnXnXnXnXnXnXnXnXnXnXnXnXnX",
"nXnXnXnXnXnXnXnXnXnXnXnXA c A E Q ( x.x.z.D.=X4X3X>X3X>X=X!.&X&X!.;XqXzXxXxX0X$X<X0XqX$Xy.y.t.t.q.y.E.Z.nXnXnXnXnXnXnXnXnXnXnXnX",
"nXnXnXnXnXnXnXnXnXnX8.Q Q ^ Q / ^ ^ ^ b b l ! 6.9.S.!.S.b.r.C.C.i.E.Z.$X,X,X>X$X,XxXxXcXzX;X$X~.y.a.t.y.t.u.nXnXnXnXnXnXnXnXnXnX",
"nXnXnXnXnXnXnX#X#XD.N.8.Q b & - g c g f f z j c A A l x E W W V k i s  .r.5.D p d  .q.d.$X0XzX0X;Xd.3. .2.0.u.+XnXnXnXnXnXnXnXnX",
"nXnXnXnXnXnXN.B.A.G.8.A Q T z g c K c g f c T R L c z L / W x u i M H H M p M D d D 3.a.d.y.t.d.$X,X0X;XE.p.p.+X@XnXnXnXnXnXnXnX",
"nXnXnXnXnXN.8.6.A.D.b ; c ~ ~ c g 9 9 g L ~ R P h g c v v z j M F ! G M l M G 9.C.&X<X;X,XE.a. . . .t.,XxX;Xp.+X+XnXnXnXnXnXnXnX",
"nXnXnXnXl.z.z.x.N.j.f - j K K K 9 0 8 c _ ~ P 9 0 9 9 g c I Q Q I F v l F 6.b.!.S.Z.E.E.Z.u.0.J D  .D 2.p.<X$Xu.B.@XnXnXnXnXnXnX",
"nXnXnXnX( 6.j.j.j./ z 7 0 0 h g h 0 9 K _ _ g 9 7 9 g K R L K g f c v E ^ 4.7.9.9.4.H H H J ! 4.D 5.2.r.3.2.t.+X+X+X#XnXnXnXnXnX",
"nXnXnX6.( 6./ ^ ~ K f 0 7 5 7 9 9 7 0 z _ _ 9 0 7 9 g K g 9 7 h c c c c v T T F E v v A A u b #.4.5.q.u.%XJ d t.,X,X#X#XnXnXnXnX",
"nXnX) ( ( / ~ ~ T h 0 7 5 5 5 5 7 7 0 g _ ~ 9 9 9 9 h 9 7 5 6 h h 0 h z z z z c c c v c f ; y M #.5.q.0.$Xp.d d 0.+X@X@XnXnXnXnX",
"nX~ Q ^ / I R K g 9 6 6 5 5 5 $ 5 0 0 P _ R h 9 6 6 6 6 6 6 h h 6 h h g g g g b c c z g f & ; k V F 5.r.r.;X2.a O D 9.8.8.nXnXnX",
"nXA v E L L P h 9 6 5 $ 5 5 5 $ $ 0 9 L _ L 0 * 6 6 6 6 6 6 6 6 6 h g g g g z z z g g 0 - - - j l l #.5.4.;XE.9.O y J H 8.nXnXnX",
"nXz v L z 9 7 6 6 5 $ $ $ $ $ $ 5 8 e T _ L 8 7 $ $ 9 9 0 7 0 0 h c g g c c c c c z z j f ; ; ; q l ! G D Z.%X+XJ a b F 6.nXnXnX",
"nXc R g 9 7 5 5 5 @ @ @ # $ $ $ - z P / f._ x z q z z 9 8 g j z z k x x A v V V E V v j ; ; ; ; u l E M S 9.Z.Z.u.O a F J 8.nXnX",
"nX~ K - * 6 $ $ @ # # # * - ; q j k V #.c.M.=.%.%.*.W I U U U W +.%.#.7.>.7.=.=.$.#.G V k 3 ; 2 2 u v l l 2.9.u.D.p a S S F ) nX",
"z R h $ $ * 7 * * & = ; q w n V C +.%.,.L._.W.n.J.I.J.n.J.L.Q.(.}.}..X-X:X-X~.W.L.e.w.=.+.V l q u b u b l F 4.4.B.! y S A p S nX",
"R A - $ * - 8 ; 2 q V C W #.=.,.e.v.I.Q.}.}.|.}.}.}.}.|.5X6X8XrXyXpXpXpXrX8X-X|.).U.L.e.w.6.G l b u y j b l ! ! z.! S S S S Q nX",
"R f $ & - q k x V W $.w.e.J.I.Q.^.}..X:X6XwX6X6X5X5X8X8XrXtXpXpXpXpXpXpXtX9X5X-X-X).~.L.n.e.*.G b j y y j v G H 6.J F H S ) 9.nX",
"c h * * 8 x B C +.;.e.J.I.Q.[.}..X.X6X7XeXwXeXeX8X7X8X8X9X9XtXtXrXtXtXtX9X9X8X6X5X-X-X(.L.e.0.! F j j y j j A A ! u F 8.J ) 8.nX",
"g - # * q w C X.$.>.n.n.W.Q.Q.^.}.|..X6X6X6X6X6X6X6X6X8X8X8X8X7X8X8XrX9X9XrX9X9X5X5X-X-X).d.e.=.G v j f 8 b j v A y G z.F F H 8.",
"h y + > 8 N U X.@.5.w.e.e.L.L.P.P.I.Q.[.[.|.}..X|..X.X.X:X|..X:X5X8X8XrXtXpX0X9X5X5X5X-X|.(.~.r.%.V b ; ; ; f c z y S 9.A p S ) ",
"h % X + ; V [ +.@.$.=.>.,.e.e.e.L.P.P.U.U.T.Q.^.^.[.^.[.Q.[.[.XX.X:X6XrXrXrX9X9X5X5X5X-X-X-X}.W.w.F j = - - ; b & O A 8.J l A ) ",
"h h . . ; N +.+.@.$.;.w.w.w.e.s.e.J.L.L.I.I.P.I.U.P.P.Q.I.^.[.|..X:X:XrXtXrXrX8X6X5X-X-X5X-X-X(.e.#.n 2 : & ; & # y F #.S S ) nX",
"y . % % 2 V +.+.$.$.=.;.;.w.e.e.L.L.J.J.L.L.L.L.P.P.P.U.^.[.}.|.:X:XrXtXrXrX8X:X6X5X8X8X8X5X5X>X~.e...M k ; & % # a F G Z G b.nX",
"nXy . y j C G +.@.$.=.;.>.e.v.J.L.I.W.L.n.J.L.I.L.I.U.Q.[.}.|.}.-X:X1X1X1X1X>X6X7X8X8X6X5X8X5X-X-XQ.L.w.#.M ; & y u M Z $.`.:X=X",
"nX. . y x G [ +.+.@.=.=.w.w.c.v.L.I.`.W.W.I.L.J.L.P.Q.Q.`.`.}.XX X:X2X2X X`.`.`.}.(.}.|.-X6X-X8X:X-X}.Q.n.#.b y & y 3 Z J.XXU.`.",
"nX& X ; V W C W ..#.&.$.>.w.v.c.m.m._.I.I.I.I.I.L.I.I._.I.m.m.m.H.M.g.&.%.G +.&.=.v.n.L.Q.}.-X5X6X5X5X-X&Xe.l ; ; 3 i ] e.1.} :.",
"nXy # j V C U W W +.*.=.=.k.g.c.c.c.M.v.v.v.v.v.n.J.n.g.%.+.U I x q e 8 q x W =.c.m.m.m.m.L.~.).-X5X5X9X:XW.+.i 2 3 n +.v.J.{ { ",
"nXh # - I I W W C I W W W W W U / W %.+.&.g.g.>.g.w.g.+.n w 1 = e = e x I U f.f.g.c.c.c.c.v.s.~.-X5X9X9X9X-Xe.Z n Z [ $.h.Y.<.-.",
"nXy % & I E V x k k q q q 8 8 0 e 1 q e N %.=.>.,.c.>.+.k w n N N N I I I U I I U %.+.%.&.-.<.s.).5X9X9X9X5XL.$...+.@.o.-.1.K.v.",
"nX- X > V I V x N L L x e e 8 e e = 8 q k U $.-.>.e.h.&.X.X.U I I x e 8 0 0 5 0 = = e N [ X.;.s./.5X9XuX9X5X).s.;.>.:.{ { 1.P.I.",
"nXnX> & V I I I N I x x c z e e q e e x n n +.$.>.c.v.c.=.%.U U L e e * o     @ = > < t { :.L.).5X9XuX9X9X5X/.s.s.L.v.<.-.P.[.`.",
"nXnXf ; V W V V x e > @ @ @ @ @ * 0 q x x t B $.>.v.L.v.g.&.U N e e L 9 * @ * w U I X.g.I.[.5XeXpXpXuX9X6XoX).P.R.Q.K.,.P.[.[.].",
"nXnXnXv E W U v q +   o @ o     o 0 q q k n m +.v.Q.`.`.Y.c.f.U N N U U U U Y %.%.=.v.}.tXaXfXgXvXsX9X7X5X/.~.R.~.R.P.{.OXXXXXnX",
"nXnXnX( *.%.W I w : + > q q 0 0 e I I e N B B | I.:XyXwXXX_.H.f.%.X.U O.Y X.%.&.,.Y.[.7XhXfXkXkXgXaXeXOX{.^.U.R.^.).|.eXwX.X].nX",
"nXnXnXN.x.*.=.=.X.N w w k N x N U / f.f.&...[ -.^.eXhXhXOX.X`.Y.>.@.$.&.f.:.>.J.Y.XXeXaXfXkXkXgXaXrXOXXXU.P.U.T.^.^.[..X.X.XnXnX",
"nXnXnXnXA.=.=.f.>.+.B B Z B U U %.%.%.f.=.+.{ :.T.wXfXfXuXOXOXoX_.v.h.v.v.J.U.[.OXyXhXfXjXfXfXyX6X.X[.U.P.K.P.Q.^.^.Q.Q.].1XnXnX",
"nXnXnXnXA.7.=.>.>.=.+.[ C +.+.&.f.>.g.&.;.@.@.<.T.eXfXfXuXeXOXOX.X.X}.U.U.U.[.|.OXuXiXhXhXyXOXoX}.[.T.U.P.P.U.^.}.Q.s.v.W.nXnXnX",
"nXnXnXnXnX7.*.>.c.c.>.=.$.$.>.>.,.c.,.w.>.$.| <.P.eXjXlXuXOXoXOXwXwX7X7XOXOX5XOX6X7XOXwXOXXX{.XXT.K.K.K.K.P.Q.^.Q.L.n.r.!.nXnXnX",
"nXnXnXnXnXnX*.=.>.c.v.c.c.,.w.v.v.v.e.v.>.-.| <.T.uXjXjXdXuXoXoXOXOX7XwXeX7XeX7XOXOX|.{.{.T.T.K.U.K.K.s.P.^.^.(.W.S.D.9.nXnXnXnX",
"nXnXnXnXnXnX6.#.;.,.c.,.w.e.,.v.v.v.v.e.;.-.| 1.OXdXjXbXvXuXoXoXR./.{.OX7X7X7X7XOXoX{.T.T.U.U.K.K.K.K.K.U.).^.}.W.V.A.z.nXnXnXnX",
"nXnXnXnXnXnXx.%.+.+.$.;.>.:.>.,.,.v.e.,.<.| } s.OXlXvXbXvXdXOXoXR.s.R.oXoXOXOXOX{.{.{.T.T.T.T.T.P.P.P.P.).[.}.].'.b.x.8.nXnXnXnX",
"nXnXnXnXnXnX*.6.+.+.@.-.$.-.<.<.e.e.e.e.;.| -.s.[.7XiXsXdXuXuXuXoXs.R.R./.{.{.|.{./.T.T.T.T.T.T.T.T.T.T./.}.}.].F.@XG.nXnXnXnXnX",
"nXnXnXnXnXnXnX*.#.[ { +.+.@.$.;.<.<.;.e.;.-.;.e.s.Y.U._.XXT.T.{.oXoXR.R.R./././././.{.T././.T.T.T.{./.{.{.}.}.=X@X@XnXnXnXnXnXnX",
"nXnXnXnXnXnXnX6.*.+.+.+.@.@.@.-.-.;.;.<.-.@.@...[ @.:.h.:.{ ' { 1.oXOXoX).).).).)././.[./.{.T.)./././.{.|.[.].'.@XnXnXnXnXnXnXnX",
"nXnXnXnXnXnXnXnX9.+.[ o.@.o.-.$.-.-.;.;.;.;.| t 4 t O.o.:.h.1.T.oXuXdXuXoX/.).).).).).).).).{.)././.}./.}.}.].F.#XnXnXnXnXnXnXnX",
"nXnXnXnXnXnXnXnXnX*.+.+.+.@.-.-.-.-.-.;.;.>.&.[ ] B [ +.o.Y.{.OXyXiXiXyXeX6X}.^.).).^.^./.(./.}./.}.}./.(.(.'.F.nXnXnXnXnXnXnXnX",
"nXnXnXnXnXnXnXnXnX6.+...@.@.@.@.-.-.-.;.;.>.>.:.=.=.h.>.:._..XeXyXyXyXrX6X|.}.^.U.Q.^.).).^.^.^.^./.}.^.^.].'.nXnXnXnXnXnXnXnXnX",
"nXnXnXnXnXnXnXnXnXnX*.%.+.$.@.-.$.-.$.$.=.>.>.f.f.c.H.Y.h.Y.XXXX.X.XwX.XXXQ.I.I.I.Q.Q.Q.Q.).^.^.^.^.^.(.^.(.'.nXnXnXnXnXnXnXnXnX",
"nXnXnXnXnXnXnXnXnXnXk.#.$.+.$.$.$.$.$.=.=.=.&.%.Y Y Y Y O.r t t r O.o.:.:.>.;.e.J.I.Q.Q.^.Q.Q.^.^.}.^.^.^.].'.nXnXnXnXnXnXnXnXnX",
"nXnXnXnXnXnXnXnXnXnXnXk.#.=.=.$.=.$.=.=.$.X.B w , < < < , , , , 4 t t r [ -.:.>.e.L.W.U.Q.Q.^.[.^.}.(.Q.(.].'.nXnXnXnXnXnXnXnXnX",
"nXnXnXnXnXnXnXnXnXnXnXnXz.=.7.=.=.=.$.$.+.n , < < , , t t t r O.O.o.o.-.Y.Q.I.P.L.e.s.W.Q.~.Q.Q.Q.(.(.(.}.&X].nXnXnXnXnXnXnXnXnX",
"nXnXnXnXnXnXnXnXnXnXnXnXA.z.7.7.7.>.=.=.%.[ [ m t t r r r r O.O.o.-.<.1.L.I.Q.L.C.s.L.L.U.~.Q.Q.(.Q.(.}.}.=XnXnXnXnXnXnXnXnXnXnX",
"nXnXnXnXnXnXnXnXnXnXnXnXnXA.b.c.c.7.w.=.$.$.&.&.+.O.B ] r r O.{ o.:.h.J.L.L.L.~.U.W.W.W.Q.Q.Q.(.(.(.}.}.nXnXnXnXnXnXnXnXnXnXnXnX",
"nXnXnXnXnXnXnXnXnXnXnXnXnXnXA.A.c.c.7.=.=.=.=.>.:.@.+.{ [ o.@.>.,.v.J.L.L.Q.Q.(.Q.~.Q.W.W.U.Q.(.(.}.}.nXnXnXnXnXnXnXnXnXnXnXnXnX",
"nXnXnXnXnXnXnXnXnXnXnXnXnXnXnXnXx.c.w.7.7.>.=.=.=.$.$.@.@.-.v.W.`.`.`.^.(.(.}.}.(.].W.U.W.U.Q.Q.^.(.nXnXnXnXnXnXnXnXnXnXnXnXnXnX",
"nXnXnXnXnXnXnXnXnXnXnXnXnXnXnXnXx.k.c.k.>.=.=.=.>.$.$.@.;.;.e.J.I.Q.XX].].}.(.(.(.Q.Q.W.~.U.~.(.nXnXnXnXnXnXnXnXnXnXnXnXnXnXnXnX",
"nXnXnXnXnXnXnXnXnXnXnXnXnXnXnXnXnXnX7.w.c.c.w.=.$.$.$.;.;.>.;.w.v.v.L.W.Q.Q.~.].^.Q.I.Q.W.U.Q.nXnXnXnXnXnXnXnXnXnXnXnXnXnXnXnXnX",
"nXnXnXnXnXnXnXnXnXnXnXnXnXnXnXnXnXnXnXnXnXc.c.c.>.>.;.>.;.>.>.>.w.e.e.e.L.J.W.Q.~.Q.W.nXnXnXnXnXnXnXnXnXnXnXnXnXnXnXnXnXnXnXnXnX",
"nXnXnXnXnXnXnXnXnXnXnXnXnXnXnXnXnXnXnXnXnXnXnXc.c.c.w.>.>.=.>.>.w.e.e.e.e.L.L.L.L.L.nXnXnXnXnXnXnXnXnXnXnXnXnXnXnXnXnXnXnXnXnXnX",
"nXnXnXnXnXnXnXnXnXnXnXnXnXnXnXnXnXnXnXnXnXnXnXnXw.c.c.w.>.w.;.w.;.w.w.e.e.e.n.nXnXnXnXnXnXnXnXnXnXnXnXnXnXnXnXnXnXnXnXnXnXnXnXnX",
"nXnXnXnXnXnXnXnXnXnXnXnXnXnXnXnXnXnXnXnXnXnXnXnXnXnXnX>.w.>.w.w.;.w.w.w.nXnXnXnXnXnXnXnXnXnXnXnXnXnXnXnXnXnXnXnXnXnXnXnXnXnXnXnX"
};
