/* XPM */
static char *result[] = {
/* columns rows colors chars-per-pixel */
"64 64 34 1 ",
"  c #C58A56",
". c #C78D58",
"X c #C88F5A",
"o c #CB935D",
"O c #CE985F",
"+ c #C19663",
"@ c #CD9760",
"# c #C69A67",
"$ c #CF9A61",
"% c #D19D65",
"& c #D29F68",
"* c #CDA06B",
"= c #D3A067",
"- c #D5A46C",
"; c #D8A76E",
": c #D7A86F",
"> c #D8A86F",
", c #D7A770",
"< c #D8A770",
"1 c #D7A871",
"2 c #DAAB74",
"3 c #DCAF78",
"4 c #DEB27C",
"5 c #E0B57E",
"6 c #DFB581",
"7 c #E0B781",
"8 c #E2BA85",
"9 c #E4BD8A",
"0 c #E5C08E",
"q c #E6C393",
"w c #E8C696",
"e c #E8C799",
"r c #E9C99C",
"t c #EACBA0",
/* pixels */
"%%%%%%$%%%%=2455647558899q99098990qwww9698888888888897980989eett",
"&===-=---1,-4888q9qq9qrrttrreeew000w0098887888888899978990qqqeeq",
"&$$%&%&-=&-=:4766996988966869648556858423332888799q8990qw9909989",
"...... .Xo.oooO$$&&---,=@$@%===>:>222244444668889q98979998857464",
"      .  .oXoOo$@$$$$%%%,--111122224448888889099qq634321232>,;--",
"oo@@@@%==&--=-&-=--=--->122233334444484=-,,22124332223132>>1<21;",
"$%$$=--,22241--=-,----;>112222354544441oooO$$%%%&-=&--;1>;<12221",
",,2233333444,%=&&&====-;,,112>242466882.@$$@$%%%%%$&%%%%&---;>13",
"980099009q999886577884582@%@OO$%%%%=%$$$$$%==-1>>>258000qq000000",
"09000000qqqeqeqqwq0009002o@@O%%$%$%%$%===%---112335980wwwq978978",
"89908909qq966646768778894$-1---123,2421-122211223>3423534343332>",
"54444485468-o@@$%%--133448998899888988>:--=---====$=$=%O%%$%$$$%",
"-1123345555;$%---<;4335124445557888998---====-=&=%%=%%%%%$%%%%%=",
"O$-==---;1-11-23334455573323253588480884444464465443555355>>>2>>",
"OO$%%--=-;-122343676588833455577848899989q9qwqqwqw00085532523332",
"oO%%%-=---23367888889998344777986778889999qqq9990w5555525>>2>;>>",
"===%%=$=%=%=--12222323333235355554855444-o%==-:-::>1:22233212>22",
"%%$%$======--=-=>1>33>553557557558555855%XooO$$$%%===*==----1222",
"3424334446446444455555555455555544334324=o%%$OO%$%%Ooo@oOo$$$%%=",
"0werew00000099889998555545443223>---==%====%%=%%%%$...  .oo.oOOO",
"80w00868885444432222>;:-28544421:>:---===%$OOOOO%O$XX.X.oooOoOO@",
"21::,1-:-==%%=====-=----<222;>11>>-221>4444455534433364423312442",
"--%=%O$oooOoooO@O$%O=-=;------=------1189899qqqqqwwq9qq990789988",
"=%%%$%%=%$OOO.XoXooOO$$%&--%%%&%====---6990wqqqq9qqqq60988889847",
"%==-;;;;>>:-:==$%&$$%%$$$%68998980qwq0090000000000008>2>12>1;--=",
"1221>33333423321--=%&$$%$%qreeeq00qw00000005058889552$======-&==",
">::>;>;;32>2>>>>2-----==-=9qq888884878988888550885543:2>;;;;>>-=",
"%====$-----:--:-111-2222232322221>11-298850005555543344475542211",
"%=%===%--=-;;-;-----==-=&--%&&-%=&=%%-4333>>>;;=;;----=-;;;=;;--",
"343535252>>33>>21;-;1-----34446464666688855555554335444433344434",
"9099555533332222>;->1>>:,-7q90q0q90q00q0000000000880888558553434",
"88555>>>22;;>>>>1>->::1:,-79909q99qqwwqw0000000000009334422321--",
"5554488553211178888885888888898q999eettt966668686488998898888664",
"--:-=>22>;;-;-7888488978899988999qqeeqqq4,1122446646464766644242",
"42222212233333442435885899766999999699962,1644644444454243423411",
"9999909q000q8909889849986632,43244466898866688868689q88644443511",
"990wwewewqweq90q008909578943848888909969q9q9q090qqwwq9q099888574",
"-2-,2221:-,343242232322222112342221233,2321221121121,,111221221;",
"%%%%$$OO$$$%----1>;>>>-;;>>--;->>-->11&$$$$$$$OO$$$O$$%=---=%$%=",
"%%%%%%%=%%=-1;>>>1>-1>>>>21>>112444231&-===%=====--1,----:----=-",
"oXo.X.ooXOoo@@@$%%%%%%%%%$$$$$=--11122323334344548894%==-::-2>>>",
".oooo.oooXooo@$%%%%%%%=%=$====---->2224355858899080w9>2212233333",
"$$$$%%$%%%&$&%%&%%%%%--%==>>23243455584554454454488642>>212>2322",
"$%%==---&&%%$%=&&=%----->>>>42243435584>>:-::;-:--------->;--==-",
"=----1-=-%--$%%$%-%%--%->:>>>3233234553>>>::->;::::--;--=%%%%%%$",
"343344343443664644747432432344445585445222>::;:>>>1>13321:11--:>",
"353445787578888888874442225555855855444433443333533322212211>1--",
"==;>1213443343333322222232448554555555444324455455552==%========",
"222>>2122;>;==%=%%%%%%%%%%=%==---=--;-2-;211<;21>222112223433244",
"----;>12223;=-%$$$%%%%%%%%%%====&-----&&%%=-&%&-->>2242484464855",
"$%%==%%&-;;-%$==%%%%%%%%=;-1>>32334443-2,<-1<<12>>2-=---;>123442",
"=-%$%%%%$$$$O%=%%-%%%==%209000009qq9qq0008898998898$$@o$O$OO$$OO",
"1--=%%$%OO%OO%=$%%%$%=%%2q000000q0qwwqqwwqwqqq99009OO$$%&$&-%==-",
"31;1,;1>2222>3---=---%%%-23335334444454421222,2212>$O%$O%-$-=---",
"12322354444445>;;>;>>>>12>>>>>2223211;>1---&%%@%$$$$%%O$=$$&=$%&",
">>>21343458854>;;>>233333231>;>>>-;1--;1222,--&%%%%%%%$==--&&&&-",
"2>-->;;1:>>:-----;;->---1@XooX..oXXXooooo$%%&-&,,,12899qwew9qq9q",
"1>>;>1>>::---;----====%$&.         XXXoXo@@$$$%%%=%1980eww088888",
";---=---:;>----=%O%%%%%%%Oo...o.XoooOooXX@Oo@@@@$$$-423434342321",
"----=----:>=O$$$%%%%%%%$%%%$O%$%%&%=%%Xoo..XXXXoooo$o@$$$$$%$%%%",
"22334324444-$%%%%%%=%%%$@%$oOO@@$O$%%OoXoooXooXooo@@$&$%=%%-=&%%",
"=-%=&=%%--:%O$OO%%===;---;112222232234443444464466881&&$%%%$%$$%",
"OOoO%$$$$%%$O%%%%%--->>2235858889990weeeewewwq0qwwew3$%%&%$--;--",
"oO%O%%$--%-:->-:1>312334445990wwwwwweeewereq099999994=----,$++#*"
};
