/* XPM */
static char *result[] = {
/* columns rows colors chars-per-pixel */
"64 64 190 2 ",
"   c #020201",
".  c #0B0A06",
"X  c #0B0B07",
"o  c #100F09",
"O  c #14120B",
"+  c #19170E",
"@  c #1B190F",
"#  c #1B1910",
"$  c #181710",
"%  c #201D12",
"&  c #262215",
"*  c #2A2516",
"=  c #2A2719",
"-  c #2E291A",
";  c #332D1C",
":  c #37311D",
">  c #3A321E",
",  c #3C3521",
"<  c #3E3826",
"1  c #433B23",
"2  c #483F24",
"3  c #4A4126",
"4  c #4B4329",
"5  c #514629",
"6  c #544A2C",
"7  c #5A4E2E",
"8  c #5D502F",
"9  c #574D30",
"0  c #5B5032",
"q  c #625533",
"w  c #665935",
"e  c #6B5C36",
"r  c #6D5E39",
"t  c #61583C",
"y  c #6E603A",
"u  c #716037",
"i  c #74643B",
"p  c #7B6A3E",
"a  c #78673D",
"s  c #6A5F42",
"d  c #766843",
"f  c #7C6C41",
"g  c #7A6E4A",
"h  c #726644",
"j  c #7F724E",
"k  c #7A725A",
"l  c #797361",
"z  c #806E3F",
"x  c #84713F",
"c  c #806F41",
"v  c #847244",
"b  c #897644",
"n  c #8D7947",
"m  c #82734A",
"M  c #8D7A4A",
"N  c #87784E",
"B  c #947F47",
"V  c #917D4B",
"C  c #837550",
"Z  c #8D7E54",
"A  c #867955",
"S  c #857E6C",
"D  c #96814D",
"F  c #9A844E",
"G  c #968047",
"H  c #8F8159",
"J  c #948152",
"K  c #998654",
"L  c #9D8852",
"P  c #93845B",
"I  c #9C8A5B",
"U  c #97885D",
"Y  c #A28B4F",
"T  c #A88E4F",
"R  c #A48C52",
"E  c #A88F52",
"W  c #A28E5E",
"Q  c #AB9254",
"!  c #A5915D",
"~  c #AC955C",
"^  c #AF985F",
"/  c #A79057",
"(  c #B49B5B",
")  c #B79C59",
"_  c #BDA15D",
"`  c #8E8466",
"'  c #9B8D64",
"]  c #938764",
"[  c #9E9066",
"{  c #928C7A",
"}  c #9B9175",
"|  c #A08F61",
" . c #A49363",
".. c #A89663",
"X. c #AD9B6A",
"o. c #AD9863",
"O. c #B49D62",
"+. c #B19D6A",
"@. c #B89F61",
"#. c #BDA363",
"$. c #B5A26B",
"%. c #BEA76A",
"&. c #BFA96D",
"*. c #B7A166",
"=. c #B9A772",
"-. c #BAA974",
";. c #B5A471",
":. c #C2A45C",
">. c #C8A95F",
",. c #C2A661",
"<. c #C6A963",
"1. c #CDAE63",
"2. c #C5AC6B",
"3. c #C9AE6B",
"4. c #D0AF63",
"5. c #CFB063",
"6. c #CEB26C",
"7. c #D3B265",
"8. c #D4B56C",
"9. c #D7B96F",
"0. c #DCBB6E",
"q. c #D9B767",
"w. c #C4AD72",
"e. c #C8AF71",
"r. c #C7B074",
"t. c #CBB271",
"y. c #D2B670",
"u. c #D6B870",
"i. c #DABB71",
"p. c #E2BE6D",
"a. c #E4BD67",
"s. c #E1BF70",
"d. c #E6C16D",
"f. c #EDC66C",
"g. c #EFC96F",
"h. c #F0C76D",
"j. c #F0C96F",
"k. c #E4C170",
"l. c #E9C470",
"z. c #F0CA70",
"x. c #928E83",
"c. c #9C9687",
"v. c #9A9791",
"b. c #A19B8C",
"n. c #A09C90",
"m. c #A7A398",
"M. c #BBAB85",
"N. c #ADABA5",
"B. c #B2ADA0",
"V. c #B7B5AF",
"C. c #B9B8B4",
"Z. c #C7BB9D",
"A. c #CAB78A",
"S. c #C4BAA1",
"D. c #C7BEAB",
"F. c #C2BFB6",
"G. c #CDC4AD",
"H. c #C9C0A7",
"J. c #D0C6AE",
"K. c #C9C4B8",
"L. c #D3C9B2",
"P. c #D5CDBC",
"I. c #D8D0BD",
"U. c #C2C3C4",
"Y. c #CBCAC5",
"T. c #CCCCCE",
"R. c #D3CEC1",
"E. c #D4D0C6",
"W. c #D5D2CC",
"Q. c #D8D5CF",
"!. c #DBD5C4",
"~. c #CECED0",
"^. c #D2D2D3",
"/. c #D9D7D2",
"(. c #DCDAD4",
"). c #D6D7D9",
"_. c #DCDCDD",
"`. c #E0DEDA",
"'. c #E0DDD7",
"]. c #E4E2DE",
"[. c #DEDFE1",
"{. c #DFE0E1",
"}. c #E5E4E3",
"|. c #E8E7E4",
" X c #EAE9E6",
".X c #EBEBEA",
"XX c #F2F2F3",
"oX c #FEFEFE",
"OX c #F6F6F8",
"+X c None",
/* pixels */
"+X+X+X+X+X+X+X+X+XY G G G G G B G G G G G G x +X+X+X+X+X+X+X+X+X+X+X+X+X+X+X+X+X+X+X+X+X+X+X+X+X+X+X+X+X+X+X+X+X+X+X+X+X+X+X+X+X",
"+X+X+X+X+X+X+X+X1.g.j.j.j.j.j.j.h.h.h.j.j.j.j.+X+X+X+X+X+X+X+X+X+X+X+X+X+X+X+X+X+X+X+X+X+X+X+X+X+X+X+X+X+X+X+X+X+X+X+X+X+X+X+X+X",
"+X+X+X+X+X+X+X+X0.f.f.f.f.f.f.f.h.f.h.f.f.f.h.>.+X+X+X+X+X+X+X+X+X+X+X+X+X+X+X+X+X+X+X+X+X+X+X+X+X+X+X+X+X+X+X+X+X+X+X+X+X+X+X+X",
"+X+X+X+X+X+X+X+Xd.f.f.h.h.f.f.j.f.f.f.f.h.f.h.T +X+X+X+X+X+X+X+X+X+X+X+X+X+X+X+X+X+X+X+X+X+X+X+X+X+X+X+X+X+X+X+X+X+X+X+X+X+X+X+X",
"+X+X+X+X+X+X+X+Xd.f.f.h.f.f.f.f.h.f.f.f.f.f.j.T +X+X+X+X+X+X+X+X+X+X+X+X+X+X+X+X+X+X+X+X+X+X+X+X+X+X+X+X+X+X+X+X+X+X+X+X+X+X+X+X",
"+X+X+X+X+X+X+X+Xa.h.f.f.f.h.f.h.f.f.f.h.h.h.j.T +X+X+X+X+X+X+X+X+X+X+X+X+X+X+X+X+X+X+X+X+X+X+X+X+X+X+X+X+X+X+X+X+X+X+X+X+X+X+X+X",
"+X+X+X+X+X+X+X+Xd.f.f.f.h.f.f.f.f.h.f.f.f.f.j.T +X+X+X+X+X+X+X+X+X+X+X+X+X+X+X+X+X+X+X+X+X+X+X+X+X+X+X+X+X+X+X+X+X+X+X+X+X+X+X+X",
"+X+X+X+X+X+X+X+X5.f.f.f.f.f.f.h.f.f.h.f.h.f.j.T > +X+X+X+X+X+X+X+X+X+X+X+X+X+X+X+X+X+X+X+X+X+X+X+X+X+X+X+X+X+X+X+X+X+X+X+X+X+X+X",
"+X+X7.1.1.5.1.1.a.h.f.f.f.f.h.f.f.h.h.f.f.h.h.d.5.5.5.5.5.1.5.7.7.5.5.5.5.5.5.5.5.5.5.5.5.5.7.1.5.5.5.7.5.5.1.T +X+X+X+X+X+X+X+X",
"+XQ g.g.f.d.f.f.f.f.f.d.d.a.a.d.p.p.a.a.a.a.p.p.0.d.0.p.p.d.0.0.0.0.u.i.i.i.i.i.i.u.y.8.y.8.8.6.8.u.u.t.8.f.j.q.+X+X+X+X+X+X+X+X",
"+X,.A.Z.Z.S.S.S.Z.J.J.J.J.J.H.G.G.D.G.J.L.L.L.L.P.P.E.R.P.R.E.E.E.W.Q.Q.Q.'.].].].].{.].]._.`._.].].].].G.d.f.f.p +X+X+X+X+X+X+X",
"+X<.!..X}.|.}.}.]. X X|.}.].}.].[.[.[._.).).).).).).)._.)./.Q.Q./././.Q.Q.Q.Q.Q.W.W./.^.^.~.~.~.T.T.~.~.C.M.d.f.a +X+X+X+X+X+X+X",
"+X<.I.W.'.'.(./.(.'.'.(.'.(.`.{._.}._.[.[.}.}.}.}.}.}.}.|..X.X.X.X.X.X X X X|.}.}.|.|..X|. X X X|.|.}.|. XR.q.d.p +X+X+X+X+X+X+X",
"+X1.I.}..X).).^.^.^.^.~.^.^.^.~.~.^.^./.W.R.W.W.W.W.W.W.W.W.E.R.^./.~.T.T.T.T.T.~.T.~.~.~.~.~.^./.^.Q.(.(.W.D.9.p +X+X+X+X+X+X+X",
"+X<.I.].)..X.X.X.X.X.XXXXXXXXXXXXXXXXXOXOXOXoXOXoXOXoXOXoXOXOXoXoXoXOXoXoXoXoXoXoXoXoXoXoXoXoXoXoXoXoXoXoXoX|.i.B +X+X+X+X+X+X+X",
"+X>.I.].[.oXoXoXoXoXoXoXoXoXoXoXoXoXoXoXoXoXoXoXoXoXoXoXoXoXoXoXoXoXoXoXoXoXoXoXoXoXoXoXoXoXoXoXoXoXoXoXoXoX Xi.Q +X+X+X+X+X+X+X",
"+X<.I.]._.oXoXoX.XU.U.U.U.U.U.U.U.U.U.U.U.U.U.U.U.U.U.U.U.U.U.U.U.U.U.U.U.U.U.K.U.U.U.U.U.U.U.U.U.U.U.U.U.U.V...a +X+X+X+X+X+X+X",
"+X<.I.].[.oXoX{.l m C C C C C C C C C C C C C C N m m C C C C m C C C C A j j N C N j N j N j b C C C C N m m j m m m m m m f +X",
"+X1.I.]._.oXoXn.:.j.h.h.h.j.j.j.h.j.j.j.j.j.j.j.j.j.h.h.g.g.j.j.g.j.g.g.g.g.h.j.g.g.g.g.z.z.f.h.j.j.j.j.j.j.j.j.f.j.j.j.j.j.z.+X",
"+X<.I.]._.oXXX} d.f.h.f.l.h.h.f.f.f.f.h.f.f.f.f.f.f.h.f.g.f.f.f.f.f.f.f.f.g.f.f.f.f.f.f.h.g.f.h.f.f.f.f.f.h.f.f.f.f.f.f.f.f.f.+X",
"+X<.I.|.{.oX|. .h.f.f.h.h.h.h.h.h.f.h.f.f.f.f.f.f.f.f.f.h.f.h.f.f.j.f.f.f.h.f.f.g.f.f.f.h.h.f.f.h.f.f.f.h.f.f.h.f.h.f.h.f.f.d.+X",
"+X>.P.]._.oX^.! h.h.p.h.a.h.h.h.f.f.f.f.f.h.f.h.h.f.h.f.f.f.f.f.f.f.h.f.f.f.f.h.f.f.f.f.h.f.h.f.f.f.f.h.f.f.f.f.f.f.f.f.h.j.q.+X",
"+X<.P.].[.oXK.( h.s.p.h.h.p.h.p.f.f.h.h.f.h.f.f.h.f.h.f.f.f.f.h.f.f.f.f.f.h.f.f.f.f.f.h.f.f.f.h.h.f.j.f.h.h.f.h.f.h.h.f.f.f.f.+X",
"+X<.P.}._.oXN.,.s.h.p.p.s.h.h.p.f.f.d.f.f.f.f.h.f.f.f.f.f.h.f.f.h.f.h.f.f.f.h.h.f.h.f.f.h.f.f.f.f.f.f.f.f.f.f.f.f.f.f.f.f.f.7.+X",
"+X,.P.].[.oXc.7.s.p.p.p.p.p.s.h.p.f.f.p.f.f.f.f.h.h.f.f.f.f.f.f.f.f.f.f.h.f.h.f.f.f.f.f.f.f.h.f.h.f.h.f.f.f.f.f.f.h.f.f.h.j.Q +X",
"+X,.P.].[.OX} 9.s.s.s.p.s.s.s.p.p.d.d.d.d.d.d.d.f.d.f.f.f.f.f.f.h.f.f.h.f.f.f.f.h.f.h.f.f.f.f.f.f.f.f.f.f.h.f.h.f.f.f.h.f.f.E +X",
"+X#.P.].[..X' p.p.s.s.p.p.p.p.p.d.p.d.d.d.l.d.d.d.f.f.d.f.f.f.h.f.f.f.f.f.f.h.f.h.f.f.f.f.f.f.f.f.h.f.f.h.f.f.f.f.f.h.f.f.d.p +X",
"+X,.P.].`._.' s.0.p.s.s.i.p.s.s.p.p.9.q.8.q.d.d.d.d.p.q.p.f.f.7.d.f.f.f.h.h.f.f.f.f.f.f.f.h.f.h.f.f.f.f.f.f.f.h.h.f.f.f.f.d.+X+X",
"+X#.P.].}.Y.~ i.0.0.0.0.s.p.0.p.k.,.> = & w p.d.d.l.D r d.f.4.3 5.f.f.f.f.f.f.f.f.f.f.f.h.f.f.f.f.f.h.f.f.f.h.f.f.h.h.f.j.q.+X+X",
"+X:.P.].[.V.( i.0.u.0.0.0.0.p.p.s.R       r k.p.d.k.w p l.l.) 1 q.d.d.d.f.f.f.d.f.f.f.f.f.f.f.f.h.f.f.f.h.f.f.f.f.f.f.f.j.:.+X+X",
"+X_ P.].[.m.<.i.u.u.0.0.u.0.0.0.s.p % 1 1 T p.i.i.p.r Q k.l.B 6 d.d.d.d.f.d.d.f.f.f.f.f.f.f.f.f.h.f.h.f.f.f.f.h.f.h.h.f.h.7.+X+X",
"+X#.P.}._.x.1.u.u.u.u.u.u.u.u.0.i.6 v s.0.p.s.p.k.k.0.p.p.k.r i f.d.d.d.d.d.d.d.d.f.q.f.f.a.a.f.f.f.h.h.h.f.f.f.f.f.f.f.f.) +X+X",
"+X_ P.}.^.` 6.u.u.u.u.8.u.u.u.u.3., ~ i.i.D E 9.v / v 0.n 8 3 D >.3 n d.v v 3 _ d.b ; ) d.p > 4.h.f.f.f.h.h.f.h.h.h.f.f.f.b +X+X",
"+X_ P.}.Y.` y.y.y.t.y.u.u.u.u.i.) ; <.i.0.5 c #., p 5 #.@ . @ ) 8   3 5.: @   F :.+   z :.O   Y f.d.d.f.h.h.p.h.h.h.f.h.a.a +X+X",
"+X#.P.}.C.' y.y.y.t.u.u.y.y.y.u.K O 2 4 Q 5 D n 0 u i p & ; & Q * > > ( + 1 @ Y i - & u u , - x f.d.d.f.h.p.h.p.a.f.f.h.q.+X+X+X",
"+XO.P.}.N.! u.y.u.8.t.u.t.8.u.i.i     X R 2 F 6 M 7 n 2 n p 1 p 7 E 3 L - _ > L , R i i , Q q x l.k.d.d.s.f.p.f.f.f.d.h.<.+X+X+X",
"+XO.P.|.v.^ t.t.t.t.t.u.u.t.u.8.5 o # > #., M , ( 1 G : <.y 8 7 n Y 6 p 5 >.: D > 1.1.( > <.6 V l.s.p.l.p.d.p.f.f.d.d.f.) +X+X+X",
"+X#.P.}.v.$.t.6.t.t.t.t.t.y.t.2.; J %.,.<., y 5 ( , N 1 8.8 i - * & w w a ) > v 2 0.k.F o - O E k.p.p.p.l.p.p.s.d.d.d.f.) +X+X+X",
"+X*.P.`.{ &.6.e.r.6.t.t.t.t.t.~ ; %.y.y.#., 2 v L 3 i 0 8.1 p @ X X p 3 L F 5 u q s.k.p . o & _ s.s.s.i.p.p.p.p.k.p.d.d.( +X+X+X",
"+X*.P./.` 2.r.r.e.e.r.t.t.t.t.Z < e.t.y.O.= = O.f q 8 p #.: v > Q _ _ > ( i w 8 d 7._ 8 e <.<.0.s.p.0.p.s.s.s.p.p.p.p.p.b +X+X+X",
"+X#.P.Y.` w.e.w.e.w.e.e.r.r.t.s 0 y.t.y...o 1 8.9 f 3 N D : p 3 3.L ^ : 2.7 v 3 v D 4 4 M ( E i.0.0.s.i.p.i.p.i.s.i.s.q.+X+X+X+X",
"+X%.R.C.P w.e.w.w.e.e.w.e.e.w.3 , 0 t X.W X d e., J , w , 3 p > p 1 J 1 3.1 F 1 5 1 i 3 e 5 u i.0.9.0.0.i.p.i.p.s.p.k.<.+X+X+X+X",
"+X@.R.m. .w.w.w.w.w.w.w.w.e.%.=     O X.K $  .@.: o.,   X y m . X m a 8 <.: ( 4   O Q 5   + ~ i.u.u.0.0.0.0.0.i.i.0.k.) +X+X+X+X",
"+X+.R.x...-.w.-.w.-.w.w.w.r. .$ .   - -.A , w.I < &.4 $ , N I X = 2.0 f ^ , 2.y   8 9.a   0 8.u.u.u.9.9.u.9.0.0.9.0.s.E +X+X+X+X",
"+X+.R.l X.-.w.-.w.-.w.w.w.e.$.P P P ' e.@...r.$.! t.! K o.%.e.m ! t.O.%.2.^ u.#.b <.y.2.M <.y.y.y.u.9.u.i.u.u.u.9.9.i.K +X+X+X+X",
"+X+.Y.S ;.-.-.-.-.w.-.w.-.-.e.r.w.r.r.w.w.r.e.w.r.r.r.t.t.r.6.t.t.t.t.t.t.y.t.t.u.t.y.y.u.y.y.8.y.y.y.u.u.y.u.u.i.9.9.v +X+X+X+X",
"+XX.G.` -.-.-.-.-.-.-.-.-.w.w.-.-.w.w.w.w.w.e.w.w.w.w.w.r.r.r.r.t.6.r.6.t.t.t.t.t.t.t.y.t.y.y.y.y.y.y.8.y.8.y.i.8.u.8.e +X+X+X+X",
"+X+.B.` -.-.-.-.-.-.-.-.-.-.-.-.w.-.-.w.-.-.w.w.w.w.w.r.r.2.w.r.r.r.e.e.r.t.r.6.t.t.t.t.t.t.t.y.y.y.y.y.y.y.y.y.y.y.2.+X+X+X+X+X",
"+X+.b.] -.-.-.-.-.-.-.-.-.-.-.-.-.-.-.-.-.-.-.r.-.r.-.r.r.w.w.r.e.w.e.r.w.e.e.e.e.t.t.t.t.t.t.t.e.y.e.y.y.y.y.y.y.u.3.+X+X+X+X+X",
"+X+.{  .M.-.-.;.;.-.;.-.-.-.-.-.-.-.-.-.-.-.-.r.-.r.-.-.-.r.w.2.w.w.w.w.w.w.e.e.e.e.e.r.e.t.t.t.e.y.y.e.t.y.6.t.t.y.( +X+X+X+X+X",
"+XX.k X.-.;.-.-.-.-.;.-.-.-.;.M.-.-.-.-.-.-.-.-.-.w.r.-.r.-.-.-.-.w.e.w.w.e.w.w.e.e.e.e.e.e.r.t.e.e.e.y.t.t.t.6.y.u.J +X+X+X+X+X",
"+XX.h X.-.-.-.-.-.-.-.-.-.;.-.-.-.;.-.-.-.-.-.-.-.-.-.-.-.-.r.-.w.-.-.w.w.-.w.e.w.w.w.e.w.e.e.w.e.e.e.e.t.t.t.t.t.t.N +X+X+X+X+X",
"+X..j -.-.-.-.-.-.;.-.-.-.-.;.-.;.-.-.;.-.-.-.;.-.-.-.-.-.-.-.-.-.w.-.w.w.-.w.w.w.w.w.w.r.r.w.w.e.e.e.e.e.e.r.r.t.e.d +X+X+X+X+X",
"+X] j -.-.-.-.;.-.-.-.-.-.-.-.-.-.-.-.-.-.-.-.;.-.-.-.-.-.-.-.-.-.-.-.-.-.w.w.-.-.w.-.w.w.r.w.w.e.e.w.w.e.e.e.e.e.&.0 +X+X+X+X+X",
"+XH Z -.-.-.-.-.-.-.;.-.-.-.-.-.;.M.-.;.;.-.-.M.=.-.-.-.-.-.;.-.-.-.-.-.-.-.-.w.-.w.w.-.w.-.w.w.w.w.e.w.e.w.e.e.t.+.+X+X+X+X+X+X",
"+Xm U -.;.-.-.-.-.;.M.;.-.-.;.-.-.-.-.-.-.-.-.-.-.-.-.-.-.-.-.-.-.-.-.-.-.-.-.-.-.-.-.w.-.w.-.w.-.w.w.w.w.w.w.w.e...+X+X+X+X+X+X",
"+Xg [ -.-.-.;.-.-.-.-.-.-.-.-.-.-.-.-.-.-.-.-.;.-.-.-.-.-.-.-.-.-.-.-.-.-.-.;.-.-.-.-.-.-.-.-.-.w.-.-.w.-.w.w.r.r.I +X+X+X+X+X+X",
"+Xh X.-.-.-.-.-.;.-.;.M.-.-.;.-.-.-.-.;.;.-.-.-.-.-.-.-.;.-.-.-.=.=.-.-.-.-.-.-.-.-.-.-.-.-.-.-.-.w.-.w.w.w.-.-.w.J +X+X+X+X+X+X",
"+Xs ;.-.-.-.-.-.-.-.-.;.-.-.-.-.-.-.;.-.-.-.-.-.;.-.-.;.-.-.-.;.-.-.-.;.-.-.-.-.-.;.;.-.-.-.-.-.-.-.-.-.-.-.w.w.-.N +X+X+X+X+X+X",
"+Xs -.-.-.;.-.-.-.-.-.-.-.;.-.-.-.-.-.-.-.-.-.-.-.-.-.-.-.-.-.-.-.-.-.-.-.;.-.-.-.-.-.-.-.-.-.-.-.-.-.-.w.-.-.-.=.+X+X+X+X+X+X+X",
"+Xj -.-.=.-.-.-.-.-.-.=.-.;.-.-.-.;.-.-.-.-.-.-.-.;.-.-.-.-.-.-.-.-.=.-.-.;.-.-.-.-.-.-.-.-.-.-.-.-.-.-.-.-.-.-.-.+X+X+X+X+X+X+X",
"+XP -.-.-.-.;.-.-.-.=.=.-.-.-.-.-.-.-.-.-.;.-.-.-.-.-.-.-.-.-.-.-.-.-.-.-.-.-.-.-.-.-.-.-.-.-.-.-.-.-.-.-.-.-.-.-.+X+X+X+X+X+X+X",
"+XA [ [ ' ' ' [ ' ' [ [ [ [ { ' ' ' ' ' ' ' ' ' ' ' } ' ' ' ' ' ' [ ' [ ' [ } ' [ [ [ [ [ [ [ [ [ [ [ [ [ [ [  .+X+X+X+X+X+X+X+X",
"+X+X+X+X+X+X+X+X+X+X+X+X+X+X+X+X+X+X+X+X+X+X+X+X+X+X+X+X+X+X+X+X+X+X+X+X+X+X+X+X+X+X+X+X+X+X+X+X+X+X+X+X+X+X+X+X+X+X+X+X+X+X+X+X"
};
