/* XPM */
static char *result[] = {
/* columns rows colors chars-per-pixel */
"64 64 140 2 ",
"   c #5B470A",
".  c #5E490D",
"X  c #634C0D",
"o  c #684F0C",
"O  c #6C510C",
"+  c #73550C",
"@  c #78570C",
"#  c #77580D",
"$  c #7C5A0C",
"%  c #634D11",
"&  c #6D5313",
"*  c #6C551C",
"=  c #735611",
"-  c #765812",
";  c #7F5D11",
":  c #7A5D1C",
">  c #6D5620",
",  c #6F5923",
"<  c #725B26",
"1  c #7B5F22",
"2  c #77602D",
"3  c #7E642D",
"4  c #7D6633",
"5  c #815E0C",
"6  c #815F13",
"7  c #85610C",
"8  c #8B650C",
"9  c #8F680C",
"0  c #946B0C",
"q  c #996F0B",
"w  c #9C710C",
"e  c #826016",
"r  c #8F6911",
"t  c #85631B",
"y  c #8D6919",
"u  c #946D15",
"i  c #99721A",
"p  c #A2750B",
"a  c #A6780B",
"s  c #AD7D0B",
"d  c #B07F0C",
"f  c #856624",
"g  c #886722",
"h  c #8C6A25",
"j  c #8F6D2A",
"k  c #916D20",
"l  c #906F2D",
"z  c #95722D",
"x  c #957434",
"c  c #907239",
"v  c #987739",
"b  c #9B793C",
"n  c #8A7246",
"m  c #957742",
"M  c #9E7D43",
"N  c #91784E",
"B  c #957B51",
"V  c #B3820D",
"C  c #B9860B",
"Z  c #BD890D",
"A  c #AF8015",
"S  c #BB8A12",
"D  c #C38D0C",
"F  c #C7900D",
"G  c #CC940C",
"H  c #D1970D",
"J  c #D3990D",
"K  c #D99D0D",
"L  c #C28F12",
"P  c #C39019",
"I  c #D69C12",
"U  c #D99F10",
"Y  c #DDA00E",
"T  c #E3A50E",
"R  c #E7A80E",
"E  c #EEAD0F",
"W  c #F0AE0F",
"Q  c #E3A610",
"!  c #9C825B",
"~  c #A28045",
"^  c #A3824C",
"/  c #A58451",
"(  c #A88652",
")  c #AA8855",
"_  c #AC8B5B",
"`  c #A18763",
"'  c #A48A66",
"]  c #AF8E60",
"[  c #B08F60",
"{  c #B39265",
"}  c #B6956B",
"|  c #B8976D",
" . c #AE9373",
".. c #B39571",
"X. c #BD9C75",
"o. c #B3987A",
"O. c #BC9E7C",
"+. c #F3BE57",
"@. c #F4BF5C",
"#. c #C3A27D",
"$. c #D5AD71",
"%. c #F4C164",
"&. c #F5C67A",
"*. c #BEA288",
"=. c #C6A583",
"-. c #C8A785",
";. c #C9A887",
":. c #C1A58C",
">. c #C6A88F",
",. c #CBAB8B",
"<. c #C6A890",
"1. c #CDAD92",
"2. c #CDAF99",
"3. c #D2B195",
"4. c #D5B59C",
"5. c #D8B89F",
"6. c #D5B6A0",
"7. c #D7B8A5",
"8. c #DBBAA4",
"9. c #DDBDAA",
"0. c #E0BFAB",
"q. c #F8CA87",
"w. c #FACF9B",
"e. c #DFC1B2",
"r. c #EFC9A6",
"t. c #E3C2AD",
"y. c #F5CFAE",
"u. c #E4C4B4",
"i. c #E5C6BA",
"p. c #E8C7B9",
"a. c #ECCBBE",
"s. c #EECDC2",
"d. c #F0CFC4",
"f. c #F1D0C6",
"g. c #F5D4CC",
"h. c #F8D7D1",
"j. c #FBDBD6",
"k. c #FDDCD8",
"l. c #FFE0DE",
"z. c None",
/* pixels */
"z.z.z.z.z.z.z.z.z.z.z.z.z.z.z.z.z.z.z.z.z.z.z.z.z.z.z.z.z.z.z.z.z.z.z.z.z.z.z.z.z.z.z.z.z.z.z.z.z.z.z.z.z.z.z.z.z.z.z.z.z.z.z.z.",
"z.z.z.z.z.z.z.z.z.z.z.z.z.z.z.z.z.z.z.z.z.z.z.z.z.z.z.z.z.z.z.z.z.z.z.z.z.z.z.z.z.z.z.z.z.z.z.z.z.z.z.z.z.z.z.z.z.z.z.z.z.z.z.z.",
"z.z.z.z.z.z.z.z.z.z.z.z.z.z.z.z.z.z.z.z.z.z.z.z.z.z.z.z.z.z.z.z.z.z.j.k.k.j.j.z.z.z.z.z.z.z.z.z.z.z.z.z.z.z.z.z.z.z.z.z.z.z.z.z.",
"z.z.z.z.z.z.z.z.z.z.z.z.z.z.z.z.z.z.z.z.z.z.z.z.z.z.z.z.z.z.j.j.k.k.k.k.k.k.k.k.k.k.j.z.z.z.z.z.z.z.z.z.z.z.z.z.z.z.z.z.z.z.z.z.",
"z.z.z.z.z.z.z.z.z.z.z.z.z.z.z.z.z.z.z.z.z.z.z.z.z.z.z.z.j.k.k.k.k.k.k.k.k.k.k.k.k.k.j.k.k.k.z.z.z.z.z.z.z.z.z.z.z.z.z.z.z.z.z.z.",
"z.z.z.z.z.z.z.z.z.z.z.z.z.z.z.z.z.z.z.z.z.z.z.z.z.z.z.k.k.k.k.k.k.k.k.k.k.k.k.k.k.k.k.k.k.k.k.j.z.z.z.z.z.z.z.z.z.z.z.z.z.z.z.z.",
"z.z.z.z.z.z.z.z.z.z.z.z.z.z.z.z.z.z.z.z.z.z.z.z.z.j.k.k.k.k.k.j.j.k.k.k.k.k.k.k.k.k.k.k.k.k.k.k.k.j.z.z.z.z.z.z.z.z.z.z.z.z.z.z.",
"z.z.z.z.z.z.z.z.z.z.z.z.z.z.z.z.z.z.z.z.z.z.z.k.k.k.k.k.k.k.k.k.k.k.k.j.k.k.k.k.k.k.k.k.k.k.k.k.k.k.j.z.z.z.z.z.z.z.z.z.z.z.z.z.",
"z.z.z.z.z.z.z.z.z.z.z.z.z.z.z.z.z.z.z.z.z.z.k.k.k.k.k.k.k.k.k.k.k.k.k.k.k.k.k.k.k.k.k.k.k.k.k.k.k.k.k.j.z.z.z.z.z.z.z.z.z.z.z.z.",
"z.z.z.z.z.z.z.z.z.z.z.z.z.z.z.z.z.z.z.z.z.k.k.k.k.k.k.k.k.k.k.k.k.k.k.k.k.k.k.j.k.k.k.k.k.k.j.k.k.k.k.k.k.z.z.z.z.z.z.z.z.z.z.z.",
"z.z.z.z.z.z.z.z.z.z.z.z.z.z.z.z.z.z.z.z.k.k.k.k.k.k.k.l.k.l.k.k.k.k.k.j.k.k.k.k.k.k.k.k.k.k.k.k.k.k.k.k.k.k.z.z.z.z.z.z.z.z.z.z.",
"z.z.z.z.z.z.z.z.z.z.z.z.z.z.z.z.z.z.z.k.k.k.k.j.f.9.2.<.2.e.g.k.k.k.k.k.k.k.k.k.k.k.k.j.k.k.j.k.k.j.k.j.k.k.j.z.z.z.z.z.z.z.z.z.",
"z.z.z.z.z.z.z.z.z.z.z.z.z.z.z.z.z.z.z.k.k.p.*.B 2 * X X & : ^ ,.d.k.k.k.k.k.k.k.k.k.k.k.k.k.k.k.k.k.k.k.k.k.k.k.z.z.z.z.z.z.z.z.",
"z.z.z.z.z.z.z.z.z.z.z.z.z.z.z.z.z.z.k.i.` < % X O + @ @ $ $ $ $ ) h.k.k.k.k.k.k.j.k.k.j.k.k.k.k.k.k.j.k.k.k.l.k.z.z.$ 5 $ $ z.z.",
"z.z.z.z.z.z.z.z.z.z.z.z.z.z.z.z.z.k.7.3 O O $ $ $ ; $ $ 5 ; $ $ g p.k.k.k.k.k.k.k.k.k.k.k.k.k.k.k.k.k.k.k.g.8.| j $ $ $ 6 $ $ z.",
"z.z.z.z.z.z.z.z.z.z.z.z.z.z.z.z.z.8.z $ $ $ $ $ $ $ $ $ $ $ $ @ l d.k.k.k.k.k.k.k.k.k.k.j.k.k.k.k.k.g.u.-.b t @ $ $ $ $ $ $ $ $ ",
"z.z.z.z.z.z.z.z.z.z.z.z.z.z.z.z.s.M $ $ $ $ 5 $ $ $ $ ; $ $ @ $ | k.k.k.k.k.k.k.k.k.k.k.l.k.j.s.5.} v t $ $ $ $ 5 $ $ $ $ $ 5 $ ",
"z.z.z.z.z.z.z.z.z.z.z.z.z.z.z.z.8.6 $ $ $ $ $ $ $ ; $ $ $ $ t X.g.k.k.k.k.k.k.k.k.k.k.f.0.#./ k 6 $ $ $ $ $ $ $ $ $ 5 $ $ $ $ $ ",
"z.z.z.z.z.z.z.z.z.z.z.z.z.z.z.k.9.t $ $ $ ; $ $ @ @ # O O X 4 f.g.9.h.k.l.h.O.2.f.5.{ x t $ $ $ $ $ $ $ $ $ $ $ $ $ $ $ $ $ $ $ ",
"z.z.z.z.z.z.z.z.z.z.z.z.z.z.z.k.h.X.h ; @ + O o X . . . X o - ^ m > 2.s.u.O.% * l 6 $ $ $ $ $ $ $ $ $ $ $ $ $ $ $ $ $ $ $ $ $ z.",
"z.z.z.z.z.z.z.z.z.z.z.z.z.z.z.k.k.k.s...X . . X X O # 7 w V Z s O . 2 h t # . . @ $ $ $ $ $ $ $ $ 6 e t h x ^ [ | #.=.-.z.z.z.z.",
"z.z.z.z.z.z.z.z.z.z.z.z.z.z.j.k.k.k.k.<.O O $ 9 p C H T R E W Y 5 . o $ $ @ X . + @ $ e h M [ X.=.3.8.u.a.g.h.k.k.k.k.k.z.z.z.z.",
"z.z.z.z.z.z.z.z.z.z.z.z.z.z.j.k.k.k.k.$.C G Y R E W W W E E W Q 8 . o @ $ @ X . f ^ X.5.a.h.k.k.k.k.l.k.k.k.k.k.k.k.k.k.k.z.z.z.",
"z.z.z.z.z.z.z.z.z.z.z.z.z.z.k.k.k.k.k.@.E W W W W W W E E E W R 0 X X y ~ } B < 4.k.k.k.k.k.k.k.k.k.k.k.k.k.k.k.k.k.k.k.k.z.z.z.",
"z.z.z.z.z.z.z.z.z.z.z.z.z.j.k.k.k.k.k.+.E E E E E E E E W W W Q 8 1 N u.h.k.g.i.j.k.k.j.k.k.k.k.k.k.k.k.k.k.k.k.k.k.k.k.k.z.z.z.",
"z.z.z.z.z.z.z.z.z.z.z.z.z.j.k.k.k.k.k.%.E E E W W E R T K F C w ~ 8.h.k.k.k.k.l.k.k.k.k.k.k.k.k.k.j.k.k.k.k.k.k.k.k.k.k.k.z.z.z.",
"z.z.z.z.z.z.z.z.z.z.z.z.z.k.k.k.k.k.k.&.E R K F V p 0 8 7 # + : u.l.k.k.k.k.k.k.j.k.k.k.k.k.k.k.k.k.k.k.j.k.k.k.k.k.k.k.k.z.z.z.",
"z.z.z.z.z.z.z.z.z.z.z.z.z.k.k.k.k.k.k.r.A 0 7 $ + O o X X . X & ) ;.g.k.k.k.k.k.k.k.k.k.k.k.j.k.k.k.k.k.k.k.k.k.k.k.k.k.k.j.z.z.",
"z.z.z.z.z.z.z.z.z.z.z.z.z.k.k.j.k.k.k.g./ O X X X X o O + + @ $ $ $ -.k.k.k.k.k.j.k.k.k.k.k.k.k.k.k.k.j.k.k.k.j.k.k.j.k.k.j.z.z.",
"z.z.z.z.z.z.z.z.z.z.z.z.j.k.k.k.k.k.k.l.6.& O + @ @ $ $ $ $ $ $ $ $ ) k.k.k.k.k.k.k.k.k.k.k.k.k.k.k.k.k.k.k.k.k.k.k.k.k.k.k.z.z.",
"z.z.z.z.z.z.z.z.z.z.z.z.j.k.k.k.k.k.k.9.v $ ; $ $ $ $ 6 $ $ $ $ $ $ ^ k.k.k.k.k.k.k.k.k.k.k.k.k.k.k.k.k.k.k.k.k.k.k.k.k.k.k.z.z.",
"z.z.z.z.z.z.z.z.z.z.z.z.k.k.k.k.k.k.f.v @ $ $ $ $ $ $ $ $ $ $ ; $ $ #.k.k.k.k.k.k.k.k.k.k.j.j.k.k.k.k.k.k.k.j.k.k.k.k.k.k.k.z.z.",
"z.z.z.z.z.z.z.z.z.z.z.z.k.k.k.k.k.l.8.; ; $ $ $ $ $ $ ; ; @ # + o x d.k.k.k.k.k.k.j.k.k.k.k.k.k.k.k.j.k.k.k.j.k.k.k.j.k.k.k.z.z.",
"z.z.z.z.z.z.z.z.z.z.z.z.k.k.k.k.k.k.t.e $ $ $ @ @ = O o X X .   % *.l.k.k.k.k.k.k.k.k.k.k.k.k.k.k.k.k.k.k.k.k.k.k.k.k.k.k.k.z.z.",
"z.z.z.z.z.z.z.z.z.z.z.z.k.k.k.k.k.k.h.} e + o X X . . . .     * o.h.k.k.k.k.k.k.k.k.k.k.k.k.j.k.k.j.k.k.k.k.j.k.k.k.k.k.k.k.z.z.",
"z.z.z.z.z.z.z.z.z.z.z.z.h.k.k.k.k.k.k.h.5.4             . , ! 9.k.k.k.k.k.k.k.k.k.k.k.k.k.k.k.k.k.k.k.k.k.k.k.k.j.k.k.k.k.k.z.z.",
"z.z.z.z.z.z.z.z.z.z.z.z.k.k.k.k.k.k.k.k.k.u. .B n n N ' :.u.k.k.k.k.k.k.k.k.k.k.k.k.k.j.k.k.k.k.k.k.k.k.j.k.k.k.k.k.k.k.k.j.z.z.",
"z.z.z.z.z.z.z.z.z.z.z.z.k.k.k.k.k.k.k.k.k.k.k.k.j.h.k.k.l.k.k.k.k.k.k.k.k.k.k.k.k.k.k.k.k.k.k.k.k.k.k.k.k.k.k.k.k.k.k.k.k.j.z.z.",
"z.z.z.z.z.z.z.z.z.z.z.z.z.k.k.k.l.k.k.k.k.k.k.k.k.k.k.k.k.k.k.k.j.k.k.j.k.k.k.k.k.k.j.k.k.k.k.k.k.j.k.k.k.k.k.k.k.k.k.k.k.z.z.z.",
"z.z.z.z.z.z.z.z.z.z.z.z.z.k.4.} X.;.3.u.d.h.k.k.l.k.l.k.k.k.k.k.k.k.k.k.k.k.k.j.k.k.k.k.k.k.k.k.k.k.k.k.k.k.j.k.k.k.k.k.k.z.z.z.",
"z.z.z.z.z.z.z.z.z.z.z.z.z.1.t $ $ $ $ t z b _ | #.,.8.p.d.g.j.k.l.l.l.k.k.k.k.k.k.k.k.k.k.k.k.k.k.k.k.k.j.k.k.k.j.k.k.k.k.z.z.z.",
"z.z.z.z.z.z.z.z.z.z.z.z.z.g $ $ $ @ $ $ $ $ $ $ $ ; e t l b ^ _ | ;.4.8.u.d.h.k.k.k.k.k.k.k.k.k.k.k.j.k.k.k.k.k.k.k.k.j.z.z.z.z.",
"z.z.z.z.z.z.z.z.z.z.z.z.X O O O + + @ # $ $ $ $ $ $ $ $ $ $ $ $ $ $ 7 e t j M #.f.k.k.k.k.k.k.k.k.k.k.k.k.k.k.k.k.k.k.k.z.z.z.z.",
"z.z.z.z.z.z.z.z.z.z.z.+ # @ + + + O O O O O O O + # @ @ $ $ $ $ $ $ $ $ $ $ $ $ [ j.k.k.k.k.k.k.k.k.k.k.k.k.k.k.k.k.k.k.z.z.z.z.",
"z.z.z.z.z.z.z.z.z.z.A p q 0 8 7 7 $ $ $ @ @ # + O O O O O O O O + + # @ @ $ $ $ h a.k.k.k.k.k.k.k.j.k.k.k.k.k.k.k.k.k.j.z.z.z.z.",
"z.z.z.z.z.z.z.z.z.z.E E R R Y K H F C V a w 0 9 8 7 $ $ @ @ = O O O O O O O O O + O.h.k.k.k.k.k.k.k.k.k.k.k.k.j.k.k.k.z.z.z.z.z.",
"z.z.z.z.z.z.z.z.z.z.E E E E W E W W E E E E E T Y J G L C V a w 0 9 7 5 $ - + O O = } h.k.k.k.k.k.k.k.k.k.k.k.j.k.k.j.z.z.z.z.z.",
"z.z.z.z.z.z.z.z.z.z.E E E E E W W W E E E E E E W W W W W W W R R T K J F D C s p q i t.k.k.k.k.k.k.k.k.k.k.k.k.k.k.j.z.z.z.z.z.",
"z.z.z.z.z.z.z.z.z.z.E E E E E E E E E E E E E E W E E E E E E E E W E W W W W E E R T &.k.k.k.k.j.k.k.k.k.k.k.k.k.k.z.z.z.z.z.z.",
"z.z.z.z.z.z.z.z.z.z.R E E W W W W E E E E E E E E E E E W W E E E E E E E E E W W W E &.k.k.k.k.k.k.k.k.k.k.j.k.k.j.z.z.z.z.z.z.",
"z.z.z.z.z.z.z.z.z.z.w a V C D H K Y R R E W W W W E W W W W W W E E E E E R E W W W W &.k.k.k.k.k.k.k.k.k.k.k.k.k.z.z.z.z.z.z.z.",
"z.z.z.z.z.z.z.z.z.z.z.z.+ $ $ 5 7 0 i w a s C D G J T R R R W W E E W E E S S K I H Q q.l.k.k.k.k.j.k.k.k.k.k.k.k.z.z.z.z.z.z.z.",
"z.z.z.z.z.z.z.z.z.z.z.z.z.z.z.z.z.z.5.1.O.{ / b z i u 0 w p s C F G Y Y T L S Z S L I w.k.k.k.k.k.k.k.k.k.k.k.k.z.z.z.z.z.z.z.z.",
"z.z.z.z.z.z.z.z.z.z.z.z.z.z.z.z.z.z.z.k.k.k.k.g.f.i.9.4.=.} ) M x j y 9 0 w w a a a P y.k.k.k.k.k.k.k.k.k.k.k.j.z.z.z.z.z.z.z.z.",
"z.z.z.z.z.z.z.z.z.z.z.z.z.z.z.z.z.z.z.k.k.k.k.k.k.k.k.k.k.k.k.j.g.a.u.5.,.X._ ^ b h b f.k.k.k.k.k.k.k.k.k.k.k.z.z.z.z.z.z.z.z.z.",
"z.z.z.z.z.z.z.z.z.z.z.z.z.z.z.z.z.z.z.z.k.k.k.k.k.k.k.k.k.k.k.k.k.k.k.k.k.l.k.j.g.s.a.k.k.k.k.k.k.k.j.k.j.k.j.z.z.z.z.z.z.z.z.z.",
"z.z.z.z.z.z.z.z.z.z.z.z.z.z.z.z.z.z.z.z.z.j.k.k.k.k.k.k.k.k.k.k.k.k.k.k.k.k.k.k.k.k.k.k.k.k.k.j.k.j.k.k.k.j.z.z.z.z.z.z.z.z.z.z.",
"z.z.z.z.z.z.z.z.z.z.z.z.z.z.z.z.z.z.z.z.z.z.j.k.k.j.k.k.j.k.k.k.k.k.k.k.k.k.k.k.k.k.k.k.k.k.k.k.k.k.k.k.j.z.z.z.z.z.z.z.z.z.z.z.",
"z.z.z.z.z.z.z.z.z.z.z.z.z.z.z.z.z.z.z.z.z.z.z.k.k.k.k.k.k.k.k.k.k.k.k.k.k.k.k.k.k.k.k.k.k.k.k.k.k.k.k.k.z.z.z.z.z.z.z.z.z.z.z.z.",
"z.z.z.z.z.z.z.z.z.z.z.z.z.z.z.z.z.z.z.z.z.z.z.z.j.k.k.k.k.k.k.k.k.k.k.k.k.k.k.k.k.k.j.k.k.k.k.k.k.j.z.z.z.z.z.z.z.z.z.z.z.z.z.z.",
"z.z.z.z.z.z.z.z.z.z.z.z.z.z.z.z.z.z.z.z.z.z.z.z.z.z.k.k.k.k.k.j.k.k.k.k.k.k.k.j.k.k.k.k.k.k.k.k.j.z.z.z.z.z.z.z.z.z.z.z.z.z.z.z.",
"z.z.z.z.z.z.z.z.z.z.z.z.z.z.z.z.z.z.z.z.z.z.z.z.z.z.z.j.k.k.k.k.k.j.k.k.k.k.k.k.k.k.k.k.k.k.j.z.z.z.z.z.z.z.z.z.z.z.z.z.z.z.z.z.",
"z.z.z.z.z.z.z.z.z.z.z.z.z.z.z.z.z.z.z.z.z.z.z.z.z.z.z.z.z.z.j.j.k.k.j.k.k.k.k.k.k.k.k.j.z.z.z.z.z.z.z.z.z.z.z.z.z.z.z.z.z.z.z.z.",
"z.z.z.z.z.z.z.z.z.z.z.z.z.z.z.z.z.z.z.z.z.z.z.z.z.z.z.z.z.z.z.z.z.z.j.j.j.j.j.z.z.z.z.z.z.z.z.z.z.z.z.z.z.z.z.z.z.z.z.z.z.z.z.z."
};
