/* XPM */
static char *result[] = {
/* columns rows colors chars-per-pixel */
"64 64 169 2 ",
"   c #39362B",
".  c #3F3B31",
"X  c #403C32",
"o  c #5C470A",
"O  c #5E490C",
"+  c #634C0D",
"@  c #684F0C",
"#  c #6C510C",
"$  c #74550C",
"%  c #77580D",
"&  c #7C5A0C",
"*  c #78570C",
"=  c #644E11",
"-  c #685218",
";  c #735611",
":  c #7E5D11",
">  c #795C1A",
",  c #454036",
"<  c #745D29",
"1  c #725B26",
"2  c #7B6127",
"3  c #7E6633",
"4  c #504940",
"5  c #5A5249",
"6  c #695E55",
"7  c #73675F",
"8  c #766A62",
"9  c #7A6D65",
"0  c #815E0C",
"q  c #815F13",
"w  c #85610C",
"e  c #8B650C",
"r  c #8F680C",
"t  c #936B0C",
"y  c #996F0B",
"u  c #9B710C",
"i  c #836115",
"p  c #8E6811",
"a  c #84631B",
"s  c #8B671A",
"d  c #946D15",
"f  c #946E1E",
"g  c #99721A",
"h  c #A3760B",
"j  c #A6780B",
"k  c #AC7C0B",
"l  c #B07F0C",
"z  c #8C6A24",
"x  c #8F6D29",
"c  c #856829",
"v  c #906F2C",
"b  c #916D20",
"n  c #93712E",
"m  c #846C3C",
"M  c #886F3F",
"N  c #876B34",
"B  c #957434",
"V  c #99773A",
"C  c #9B793D",
"Z  c #8B7347",
"A  c #8E764B",
"S  c #9E7D44",
"D  c #917544",
"F  c #957B52",
"G  c #A07F45",
"H  c #82736B",
"J  c #867770",
"K  c #8B7B74",
"L  c #B3820C",
"P  c #B9870B",
"I  c #BE8A0D",
"U  c #BB8A12",
"Y  c #C38D0C",
"T  c #CC940C",
"R  c #D1970D",
"E  c #D59A0D",
"W  c #D99D0D",
"Q  c #C28F12",
"!  c #C39019",
"~  c #D69C12",
"^  c #D99F10",
"/  c #DDA00D",
"(  c #E3A50E",
")  c #E7A80E",
"_  c #EEAD0F",
"`  c #F0AE0F",
"'  c #EFAF16",
"]  c #E3A610",
"[  c #EFB32C",
"{  c #9C825C",
"}  c #9D8052",
"|  c #A3824B",
" . c #AB8957",
".. c #AC8B5B",
"X. c #A58555",
"o. c #B08F5F",
"O. c #9F8560",
"+. c #93827B",
"@. c #A48967",
"#. c #AF8E60",
"$. c #A78D6A",
"%. c #B39265",
"&. c #B6956B",
"*. c #B9986D",
"=. c #AB9170",
"-. c #B49672",
";. c #B89771",
":. c #BC9A73",
">. c #BE9E7A",
",. c #B59A7C",
"<. c #C09F79",
"1. c #D3AB6E",
"2. c #C4A37F",
"3. c #F5C46F",
"4. c #F5C67C",
"5. c #998780",
"6. c #9E8C87",
"7. c #A28F88",
"8. c #A9958E",
"9. c #A6928C",
"0. c #BA9E82",
"q. c #AD9892",
"w. c #B59F99",
"e. c #B39D97",
"r. c #BEA186",
"t. c #B7A09B",
"y. c #BCA59F",
"u. c #BDA5A0",
"i. c #C5A484",
"p. c #CCAA8B",
"a. c #C5A688",
"s. c #CDAD92",
"d. c #D3B196",
"f. c #D5B49B",
"g. c #D8B79E",
"h. c #C1A9A4",
"j. c #CBB2AD",
"k. c #DCBAA4",
"l. c #DCBCA9",
"z. c #D3B5A7",
"x. c #D5BAB5",
"c. c #D7BDB8",
"v. c #E0BFAB",
"b. c #F8CA87",
"n. c #FACF9B",
"m. c #DDC1BD",
"M. c #DEC0B1",
"N. c #E3C2AD",
"B. c #F7CFA8",
"V. c #E4C4B4",
"C. c #E8C7B7",
"Z. c #E3C5BA",
"A. c #E8C7B9",
"S. c #EBCABD",
"D. c #E7C8BC",
"F. c #E3C6C2",
"G. c #EDCDC3",
"H. c #ECCDC9",
"J. c #F0CFC4",
"K. c #EFD1CC",
"L. c #F1D0C6",
"P. c #F4D3CC",
"I. c #FBD7C1",
"U. c #F5D5D1",
"Y. c #F8D7D1",
"T. c #FBDAD6",
"R. c #FDDCD8",
"E. c #FFE0DD",
"W. c None",
/* pixels */
"W.W.W.W.W.W.W.W.W.W.W.W.W.W.W.W.W.W.W.W.W.W.W.W.W.W.W.W.W.W.W.W.W.W.W.W.W.W.W.W.W.W.W.W.W.W.W.W.W.W.W.W.W.W.W.W.W.W.W.W.W.W.W.W.",
"W.W.W.W.W.W.W.W.W.W.W.W.W.W.W.W.W.W.W.W.W.W.W.W.W.W.W.W.W.W.W.W.W.W.W.W.W.W.W.W.W.W.W.W.W.W.W.W.W.W.W.W.W.W.W.W.W.W.W.W.W.W.W.W.",
"W.W.W.W.W.W.W.W.W.W.W.W.W.W.W.W.W.W.W.W.W.W.W.W.W.W.W.W.W.W.W.W.W.T.R.R.R.R.R.T.W.W.W.W.W.W.W.W.W.W.W.W.W.W.W.W.W.W.W.W.W.W.W.W.",
"W.W.W.W.W.W.W.W.W.W.W.W.W.W.W.W.W.W.W.W.W.W.W.W.W.W.W.W.W.W.T.R.R.R.R.R.R.R.R.R.R.R.T.T.W.W.W.W.W.W.W.W.W.W.W.W.W.W.W.W.W.W.W.W.",
"W.W.W.W.W.W.W.W.W.W.W.W.W.W.W.W.W.W.W.W.W.W.W.W.W.W.W.W.T.R.R.R.T.R.R.R.R.R.R.R.R.R.R.R.R.T.T.W.W.W.W.W.W.W.W.W.W.W.W.W.W.W.W.W.",
"W.W.W.W.W.W.W.W.W.W.W.W.W.W.W.W.W.W.W.W.W.W.W.W.W.W.T.R.R.R.T.R.R.R.R.R.R.R.R.R.R.T.R.R.R.R.R.T.T.W.W.W.W.W.W.W.W.W.W.W.W.W.W.W.",
"W.W.W.W.W.W.W.W.W.W.W.W.W.W.W.W.W.W.W.W.W.W.W.W.W.R.R.R.R.R.R.R.R.R.R.R.R.R.R.R.R.R.R.R.R.R.R.R.R.T.W.W.W.W.W.W.W.W.W.W.W.W.W.W.",
"W.W.W.W.W.W.W.W.W.W.W.W.W.W.W.W.W.W.W.W.W.W.W.R.R.R.R.R.R.R.R.R.R.R.R.R.R.R.R.T.R.R.R.R.R.R.R.R.R.R.R.W.W.W.W.W.W.W.W.W.W.W.W.W.",
"W.W.W.W.W.W.W.W.W.W.W.W.W.W.W.W.W.W.W.W.W.W.T.R.R.R.R.R.R.R.R.R.R.R.R.R.R.R.R.R.R.R.R.R.R.R.R.T.R.R.R.R.W.W.W.W.W.W.W.W.W.W.W.W.",
"W.W.W.W.W.W.W.W.W.W.W.W.W.W.W.W.W.W.W.W.W.R.R.T.R.R.R.R.R.R.R.R.R.R.R.R.R.T.R.R.R.R.R.T.R.R.R.R.R.R.R.R.R.W.W.W.W.& & & & & W.W.",
"W.W.W.W.W.W.W.W.W.W.W.W.W.W.W.W.W.W.W.W.R.R.R.R.T.R.R.R.R.R.R.R.R.R.T.R.R.R.R.R.R.R.R.R.R.R.R.R.R.R.R.R.R.Y...& & & & : & & W.W.",
"W.W.W.W.W.W.W.W.W.W.W.W.W.W.W.W.W.W.W.T.R.R.R.R.R.R.R.R.R.R.R.R.R.R.R.R.R.R.R.R.R.R.R.R.R.R.R.R.R.R.R.R.V. .i & & & & 0 0 & & W.",
"W.W.W.W.W.W.W.W.W.W.W.W.W.W.W.W.W.W.W.R.R.R.R.R.R.R.R.R.R.R.R.R.R.R.R.R.R.R.R.R.R.R.R.R.R.R.R.R.R.R.P.2.z * & 0 0 & : & & & & W.",
"W.W.W.W.W.W.W.W.W.W.W.W.W.W.W.W.W.W.R.R.R.R.R.R.R.T.L.G.G.P.R.R.R.R.R.T.R.R.R.R.T.R.R.R.R.R.R.E.P.p.C 0 & 0 & & & & & & : & W.W.",
"W.W.W.W.W.W.W.W.W.W.W.W.W.W.W.W.W.R.R.R.R.R.R.S.r.F 3 2 z | o.C.R.R.R.R.R.R.R.R.R.R.R.R.R.E.P.p.C i * & & & & & & & & & & & W.W.",
"W.W.W.W.W.W.W.W.W.W.W.W.W.W.W.W.W.R.R.R.R.C.$.1 + @ $ * & & &  .T.R.R.R.R.R.R.T.R.R.R.R.P.d.| 0 & & & & & & & & & : & & W.W.W.W.",
"W.W.W.W.W.W.W.W.W.W.W.W.W.W.W.W.T.R.R.P.,.< + @ & : & & & & * B P.R.R.R.R.R.R.T.R.R.Y.d.S w & & & & & & & & i n ..p.W.W.W.W.W.W.",
"W.W.W.W.W.W.W.W.W.W.W.W.W.W.W.W.R.R.V.Z + # * & & & & & : & & | T.R.R.R.R.R.R.E.T.f.| q * & & & & & & i n %.k.L.R.R.R.W.W.W.W.W.",
"W.W.W.W.W.W.W.W.W.W.W.W.W.W.W.R.R.Z.N # & & & & & & : & & & c g.R.R.R.R.E.z.r.k. .i & & & & & & i B %.f.L.R.R.R.R.R.R.W.W.W.W.W.",
"W.W.W.W.W.W.W.W.W.W.W.W.W.W.W.R.T...$ & & & & & & & & & & : p.E.H.P.R.R.G.N O > & & & & & a C :.g.P.R.R.R.R.R.R.R.R.R.T.W.W.W.W.",
"W.W.W.W.W.W.W.W.W.W.W.W.W.W.W.R.p.: & & & & & & : & & $ @ = a.f.M { N.2.V @ O # & & & s o.k.P.R.R.R.R.R.R.R.R.R.R.R.T.R.W.W.W.W.",
"W.W.W.W.W.W.W.W.W.W.W.W.W.W.R.T.G & & & & : & & % # + O + $ s i + = a * & # O + & x &.C.R.R.R.R.R.R.R.R.R.R.R.R.R.R.R.R.W.W.W.W.",
"W.W.W.W.W.W.W.W.W.W.W.W.W.W.R.P.C & & & & & % @ O O + & u I / k @ O $ & & $ O + ;.S.R.R.R.R.R.T.R.R.R.R.R.R.R.R.R.R.R.R.R.W.W.W.",
"W.W.W.W.W.W.W.W.W.W.W.W.W.W.R.T.<.q : & $ = O + # & j R ) ` ` T % O # * i | M Z K.R.R.R.R.R.R.R.R.R.R.R.R.R.R.R.R.R.R.R.R.W.W.W.",
"W.W.W.W.W.W.W.W.W.W.W.W.W.T.R.R.T.l.d.D o + # w k E _ _ _ _ ` ( w + + | k.T.P.L.R.R.R.R.R.R.R.R.R.R.R.R.R.R.R.R.R.R.R.R.R.W.W.W.",
"W.W.W.W.W.W.W.W.W.W.W.W.W.R.R.R.R.R.R.-.# r P / _ _ _ _ _ _ _ ) r > { P.E.R.R.R.R.R.R.R.R.R.R.R.R.R.R.R.R.R.R.R.R.R.R.R.R.W.W.W.",
"W.W.W.W.W.W.W.W.W.W.W.W.W.R.R.R.R.R.R.1.T ( _ _ _ _ _ _ _ _ _ R f i.Y.R.R.R.R.R.T.R.R.R.T.R.R.R.R.R.R.R.R.R.T.R.T.R.R.R.R.T.W.W.",
"W.W.W.W.W.W.W.W.W.W.W.W.W.R.R.R.R.R.R.3._ ` _ _ _ _ ` _ ( T j w :.E.E.R.R.R.R.R.R.R.R.R.R.R.R.R.R.T.R.T.R.R.R.R.R.R.R.R.R.T.W.W.",
"W.W.W.W.W.W.W.W.W.W.W.W.W.R.R.R.R.R.R.b._ _ _ _ ` ) R L t * # + X.p.N.R.R.R.R.R.R.R.R.R.T.R.R.R.R.R.R.R.R.R.R.R.R.R.T.R.R.T.W.W.",
"W.W.W.W.W.W.W.W.W.W.W.W.T.R.T.R.R.R.R.B.' _ _ ( I y & $ # + + # % * x C.R.R.R.R.R.T.R.R.R.R.R.R.R.R.R.R.R.R.R.R.R.R.R.R.R.R.W.W.",
"W.W.W.W.W.W.W.W.W.W.W.W.T.R.R.R.R.R.R.I.[ W P r * # + + @ $ * & & & & i.R.R.R.R.R.R.R.R.R.R.R.R.R.R.R.R.R.R.R.R.R.R.R.R.R.R.W.W.",
"W.W.W.W.W.W.W.W.W.W.W.W.R.R.R.R.R.R.R.R.1.e $ @ + @ # $ & & & & & & & :.E.R.R.R.R.R.R.R.R.R.R.R.R.T.R.R.R.T.R.R.R.R.R.R.R.R.W.W.",
"W.W.W.W.W.W.W.W.W.W.W.W.R.R.T.U.T.R.R.R.S.} + @ $ & & : & & : & & : & s.E.E.R.P.Y.R.R.R.R.R.R.R.R.R.R.R.R.R.R.R.T.R.T.R.R.R.W.W.",
"W.W.W.W.W.W.W.W.W.W.W.W.R.T.7.6 9 y.T.R.R.i.* & & & & & & & & & & $ N J.R.P.t.H H.R.R.R.R.R.R.T.R.R.R.R.R.R.R.R.R.R.R.R.R.R.W.W.",
"W.W.W.W.W.W.W.W.W.W.W.W.T.R.m.H . , x.R.k.x & & & & & & & & % # + O @.R.F.9 X 9.R.R.R.R.R.R.R.R.R.R.R.T.R.R.T.R.R.R.R.R.R.R.W.W.",
"W.W.W.W.W.W.W.W.W.W.W.W.T.R.R.T.j.8.H.T.| & & & & : & & ; # O O O 3 D.K.7   H U.R.R.R.R.R.R.R.R.R.R.R.R.R.R.R.R.R.R.R.R.R.T.W.W.",
"W.W.W.W.W.W.W.W.W.W.W.W.R.R.P.j.e.P.E.L.v & & & & % # + O O O O Z M.E.8.. K K.E.R.R.R.R.R.R.R.T.R.R.R.R.R.R.R.R.R.R.R.R.R.T.W.W.",
"W.W.W.W.W.W.W.W.W.W.W.W.R.U.5.4 8 c.H.T.| & & * # + O O O O - $.G.R.R.h.w.x.u.y.x.K.R.R.R.R.R.R.R.R.R.R.R.R.R.R.R.R.T.R.R.T.W.W.",
"W.W.W.W.W.W.W.W.W.W.W.W.W.T.H.m.H.6.F.E.V.X.c O o o O = 1 { k.R.T.R.R.R.Y.9   . 5 w.R.R.R.R.R.R.R.T.R.R.R.R.R.R.R.R.R.R.R.R.W.W.",
"W.W.W.W.W.W.W.W.W.W.W.W.W.T.f.*.;.-.d.N.H.U.Z.O.A F =.s.D.R.R.R.R.R.R.R.R.m.q.t.m.T.R.R.T.R.R.R.R.R.R.R.T.R.R.R.R.R.R.R.R.W.W.W.",
"W.W.W.W.W.W.W.W.W.W.W.W.W.p.a & & & : a n C ..*.>.p.k.S.L.P.T.R.R.R.R.E.R.R.c.+.F.R.R.R.R.R.R.R.R.R.R.R.R.R.R.R.R.R.R.R.T.W.W.W.",
"W.W.W.W.W.W.W.W.W.W.W.W.W.a & & & & & & * & & & & & i a v C | ..:.p.f.l.V.J.Z.8 9 m.R.R.R.R.R.R.R.R.R.R.R.R.R.R.R.R.R.R.W.W.W.W.",
"W.W.W.W.W.W.W.W.W.W.W.W.+ @ # # $ % % % & & & & & & & & & * & & & & 0 i a v G ;.x.H.R.R.R.R.R.R.T.R.R.R.R.R.R.R.R.R.R.R.W.W.W.W.",
"W.W.W.W.W.W.W.W.W.W.W.% % % $ $ # # # # # # # # $ % % % & & & & & & & & & & & * o.R.R.R.R.R.R.R.R.R.R.R.R.T.R.T.T.R.R.R.W.W.W.W.",
"W.W.W.W.W.W.W.W.W.W.k h u t e w w & & & * % $ $ $ # # # # # # $ $ % % & & & : & z S.R.R.R.R.R.R.R.R.R.R.R.R.R.R.R.R.R.T.W.W.W.W.",
"W.W.W.W.W.W.W.W.W.W._ _ ) ) ( W R Y I L k u y r w w & & $ $ $ $ # # @ # # @ # # % >.Y.R.R.R.R.R.R.R.R.R.R.R.R.R.R.R.R.W.W.W.W.W.",
"W.W.W.W.W.W.W.W.W.W._ _ ' _ ` _ ` ` _ ` _ _ ) ( / W T Y P L j u t e w 0 & % $ $ @ ; &.Y.R.R.R.R.R.R.R.R.R.R.R.R.R.R.R.W.W.W.W.W.",
"W.W.W.W.W.W.W.W.W.W._ _ _ _ _ _ _ _ _ _ _ _ _ _ _ ` ` ` _ _ _ ) ) ( ^ E T I L k h y g N.R.R.R.R.R.R.R.T.R.R.T.R.R.R.T.W.W.W.W.W.",
"W.W.W.W.W.W.W.W.W.W._ _ _ _ _ _ _ _ _ _ _ _ _ _ _ _ ` _ _ _ ` _ _ _ ` ` ` _ _ _ _ ) ( 4.R.R.R.R.R.R.R.R.R.R.R.R.R.R.W.W.W.W.W.W.",
"W.W.W.W.W.W.W.W.W.W.( ' ` ` ` ` _ _ ` _ _ _ _ _ _ _ _ _ _ _ _ _ _ _ _ _ _ _ _ _ _ _ _ 4.R.R.R.R.R.R.R.R.R.R.R.R.R.T.W.W.W.W.W.W.",
"W.W.W.W.W.W.W.W.W.W.u j L P Y R W ( ( ' _ ` ` ` _ _ ` _ ` _ _ _ _ _ _ _ _ _ ' _ _ _ ' 4.R.R.R.R.R.R.T.R.R.R.R.R.R.W.W.W.W.W.W.W.",
"W.W.W.W.W.W.W.W.W.W.W.W.* & & 0 w r d u j k P Y T W ( ) ) _ _ ` ` ` ` _ ) U U ^ W E ] b.E.R.R.R.R.R.R.R.T.R.R.R.T.W.W.W.W.W.W.W.",
"W.W.W.W.W.W.W.W.W.W.W.W.W.W.W.W.W.W.d.s.2.%.X.C n f d d u h k P Y R W ( ) Q U I U Q ~ n.R.R.R.R.R.R.R.R.R.R.R.R.W.W.W.W.W.W.W.W.",
"W.W.W.W.W.W.W.W.W.W.W.W.W.W.W.W.W.W.W.R.R.R.T.P.L.C.k.d.i.&. .S B x s r t y u j j j ! B.R.R.R.R.R.R.R.R.R.R.R.R.W.W.W.W.W.W.W.W.",
"W.W.W.W.W.W.W.W.W.W.W.W.W.W.W.W.W.W.W.W.R.R.R.R.R.R.R.E.R.R.R.T.P.S.N.g.p.:...| V v C L.R.R.R.R.R.R.R.R.T.R.R.W.W.W.W.W.W.W.W.W.",
"W.W.W.W.W.W.W.W.W.W.W.W.W.W.W.W.W.W.W.W.T.R.R.R.R.R.R.R.R.R.R.R.R.R.E.R.E.R.R.T.P.G.S.R.R.R.R.R.R.T.R.R.R.R.W.W.W.W.W.W.W.W.W.W.",
"W.W.W.W.W.W.W.W.W.W.W.W.W.W.W.W.W.W.W.W.W.T.R.R.R.T.R.R.R.R.R.R.R.R.R.R.R.R.R.R.R.R.R.R.R.R.R.R.R.R.R.R.R.T.W.W.W.W.W.W.W.W.W.W.",
"W.W.W.W.W.W.W.W.W.W.W.W.W.W.W.W.W.W.W.W.W.W.T.R.R.R.R.R.T.R.R.R.R.R.R.R.R.R.R.R.R.R.R.R.R.R.R.T.R.R.R.R.T.W.W.W.W.W.W.W.W.W.W.W.",
"W.W.W.W.W.W.W.W.W.W.W.W.W.W.W.W.W.W.W.W.W.W.W.R.R.R.R.R.R.R.R.R.R.R.R.R.R.R.R.R.R.R.R.R.R.R.R.R.R.R.R.W.W.W.W.W.W.W.W.W.W.W.W.W.",
"W.W.W.W.W.W.W.W.W.W.W.W.W.W.W.W.W.W.W.W.W.W.W.W.W.R.R.R.R.R.R.R.R.R.R.R.R.R.R.T.R.R.R.R.R.R.R.R.R.T.W.W.W.W.W.W.W.W.W.W.W.W.W.W.",
"W.W.W.W.W.W.W.W.W.W.W.W.W.W.W.W.W.W.W.W.W.W.W.W.W.W.T.R.R.R.R.R.R.R.R.R.R.R.R.R.R.R.R.R.R.R.R.T.W.W.W.W.W.W.W.W.W.W.W.W.W.W.W.W.",
"W.W.W.W.W.W.W.W.W.W.W.W.W.W.W.W.W.W.W.W.W.W.W.W.W.W.W.W.T.R.R.R.R.R.R.R.R.R.R.R.R.R.R.T.R.T.W.W.W.W.W.W.W.W.W.W.W.W.W.W.W.W.W.W.",
"W.W.W.W.W.W.W.W.W.W.W.W.W.W.W.W.W.W.W.W.W.W.W.W.W.W.W.W.W.W.W.T.T.R.R.R.R.R.T.R.R.R.R.T.W.W.W.W.W.W.W.W.W.W.W.W.W.W.W.W.W.W.W.W.",
"W.W.W.W.W.W.W.W.W.W.W.W.W.W.W.W.W.W.W.W.W.W.W.W.W.W.W.W.W.W.W.W.W.W.W.W.W.W.W.W.W.W.W.W.W.W.W.W.W.W.W.W.W.W.W.W.W.W.W.W.W.W.W.W."
};
