/* XPM */
static char *result[] = {
/* columns rows colors chars-per-pixel */
"64 64 248 2 ",
"   c #23140B",
".  c #2A160C",
"X  c #2B190E",
"o  c #281106",
"O  c #36190C",
"+  c #251610",
"@  c #2C1C13",
"#  c #261811",
"$  c #331E14",
"%  c #381F16",
"&  c #332214",
"*  c #35241A",
"=  c #3B251B",
"-  c #3B2718",
";  c #332213",
":  c #3E2B25",
">  c #3A2D3A",
",  c #3E303C",
"<  c #442C1D",
"1  c #482B19",
"2  c #54281B",
"3  c #4C321D",
"4  c #53351C",
"5  c #43200F",
"6  c #432C23",
"7  c #4C2C24",
"8  c #45292A",
"9  c #552D25",
"0  c #453122",
"q  c #4C3423",
"w  c #4D3629",
"e  c #533622",
"r  c #553A24",
"t  c #5A3D25",
"y  c #53332C",
"u  c #5C3D2C",
"i  c #59362A",
"p  c #462C35",
"a  c #4C333B",
"s  c #493239",
"d  c #543433",
"f  c #5B3B34",
"g  c #53363D",
"h  c #5B3B3D",
"j  c #583737",
"k  c #502E34",
"l  c #65372C",
"z  c #753B2C",
"x  c #643B34",
"c  c #633D3B",
"v  c #6C3C34",
"b  c #703E37",
"n  c #411F0D",
"m  c #5B422C",
"M  c #5A4327",
"N  c #5C4432",
"B  c #5D4836",
"V  c #63442D",
"C  c #644A2D",
"Z  c #6B4C2C",
"A  c #684428",
"S  c #754C2D",
"D  c #76512E",
"F  c #624533",
"G  c #6B4434",
"H  c #634A34",
"J  c #6B4B34",
"K  c #65433A",
"L  c #6C443C",
"P  c #634B3A",
"I  c #6C4C3A",
"U  c #73453C",
"Y  c #744B3C",
"T  c #774835",
"R  c #6C5235",
"E  c #6C553B",
"W  c #67533D",
"Q  c #735333",
"!  c #7B5433",
"~  c #755A3C",
"^  c #7B5C3D",
"/  c #795439",
"(  c #3C3550",
")  c #4C3944",
"_  c #493845",
"`  c #543B43",
"'  c #5A3C44",
"]  c #543D48",
"[  c #623D43",
"{  c #5C414A",
"}  c #584149",
"|  c #4C4155",
" . c #5C4551",
".. c #584856",
"X. c #644244",
"o. c #6D4442",
"O. c #62444D",
"+. c #6B454A",
"@. c #6B4A4D",
"#. c #67494C",
"$. c #744B43",
"%. c #7C4C43",
"&. c #744C4B",
"*. c #7B4D4A",
"=. c #724545",
"-. c #6B5542",
";. c #6E5943",
":. c #695344",
">. c #7C5344",
",. c #735B44",
"<. c #7C534B",
"1. c #785C47",
"2. c #644651",
"3. c #654B53",
"4. c #6B4C53",
"5. c #684D57",
"6. c #734E54",
"7. c #794E54",
"8. c #6C525A",
"9. c #735255",
"0. c #7C5454",
"q. c #74535B",
"w. c #7B555B",
"e. c #7D595C",
"r. c #775D5A",
"t. c #7B6143",
"y. c #7B634B",
"u. c #776248",
"i. c #7B6552",
"p. c #564B63",
"a. c #5C5375",
"s. c #7D5A64",
"d. c #795761",
"f. c #6C5460",
"g. c #786262",
"h. c #834838",
"j. c #85573A",
"k. c #87623D",
"l. c #835344",
"z. c #8B5A44",
"x. c #83544B",
"c. c #8A5749",
"v. c #8C5A4D",
"b. c #865846",
"n. c #935C45",
"m. c #925D4B",
"M. c #9B5E44",
"N. c #845553",
"B. c #855956",
"V. c #8D5C54",
"C. c #835B5C",
"Z. c #8A5E5C",
"A. c #865555",
"S. c #915D53",
"D. c #915F5A",
"F. c #804E43",
"G. c #846648",
"H. c #94614C",
"J. c #9B644C",
"K. c #986545",
"L. c #8C6155",
"P. c #836A54",
"I. c #8D615C",
"U. c #876B57",
"Y. c #936255",
"T. c #9A6553",
"R. c #9E6A53",
"E. c #93635B",
"W. c #9B655B",
"Q. c #9C6A5C",
"!. c #946D5A",
"~. c #897159",
"^. c #99715D",
"/. c #AC6A4D",
"(. c #A4674A",
"). c #A46A54",
"_. c #AB6C54",
"`. c #A36B5D",
"'. c #A76A58",
"]. c #AE735B",
"[. c #A77259",
"{. c #B2765C",
"}. c #BA7B5B",
"|. c #845D63",
" X c #845E66",
".X c #915D60",
"XX c #8B6264",
"oX c #846169",
"OX c #8C646A",
"+X c #886565",
"@X c #936563",
"#X c #936865",
"$X c #9C6A63",
"%X c #93676A",
"&X c #956A6B",
"*X c #9C6D6B",
"=X c #996662",
"-X c #947D64",
";X c #9C7365",
":X c #976C71",
">X c #936E6F",
",X c #A36D64",
"<X c #A66E68",
"1X c #A37263",
"2X c #AB7365",
"3X c #A5726C",
"4X c #AB756A",
"5X c #AE786A",
"6X c #B37464",
"7X c #B57A63",
"8X c #BC7C64",
"9X c #B17669",
"0X c #B5796A",
"qX c #BC7D6B",
"wX c #B97763",
"eX c #A37372",
"rX c #AB7671",
"tX c #B97C73",
"yX c #C17E5D",
"uX c #C17D65",
"iX c #C37F6B",
"pX c #9B856A",
"aX c #BC8164",
"sX c #BE836A",
"dX c #B7806B",
"fX c #B48874",
"gX c #BE805F",
"hX c #C4815E",
"jX c #C48364",
"kX c #C4836B",
"lX c #CA866C",
"zX c #CC8B6B",
"xX c #CA8866",
"cX c #D38C6C",
"vX c #D28C66",
"bX c #D7926D",
"nX c #C98873",
"mX c #D08E72",
"MX c #DB9473",
"NX c #D99777",
"BX c #CC9070",
"VX c #EB9E73",
"CX c #E49C7B",
"ZX c #E59B76",
"AX c #E59A6E",
"SX c #EEA275",
"DX c #EEAC93",
"FX c None",
/* pixels */
"FXFXFXFXFXFXFXFXFXFXFXFXFXFXFXFXFXFXFXFXFXFXFXFXS D h.j.k.k.k.k.k.j.! FXFXFXFXFXFXFXFXFXFXFXFXFXFXFXFXFXFXFXFXFXFXFXFXFXFXFXFXFX",
"FXFXFXFXFXFXFXFXFXFXFXFXFXFXFXFXFXFXA S J S S D D D D j.j.D k.k.k.k.k.k.t.^ ^ FXFXFXFXFXFXFXFXFXFXFXFXFXFXFXFXFXFXFXFXFXFXFXFXFX",
"FXFXFXFXFXFXFXFXFXFXFXFXFXFXFXFXA A A A Q ! ^ k.j.S S S D D D ^ k.k.K.k.k.k.k.t.^ Q FXFXFXFXFXFXFXFXFXFXFXFXFXFXFXFXFXFXFXFXFXFX",
"FXFXFXFXFXFXFXFXFXFXFXFXFXFXR R Z Z Z A Z Z S D j.k.D S Z Z Z Z D D k.k.k.k.G.t.t.^ R R FXFXFXFXFXFXFXFXFXFXFXFXFXFXFXFXFXFXFXFX",
"FXFXFXFXFXFXFXFXFXFXFXe 4 r t C R ~ ^ ~ ^ ~ Q Z Z Q ^ ^ ^ ~ M M M C R E u.^ t.t.~ t.u.~ R FXFXFXFXFXFXFXFXFXFXFXFXFXFXFXFXFXFXFX",
"FXFXFXFXFXFXFXFXFXt V m t t 4 r t t Q R ^ t.t.~ Z A C Q ~ ^ ~ M M C R R ~ u.t.~ t.t.u.u.E B FXFXFXFXFXFXFXFXFXFXFXFXFXFXFXFXFXFX",
"FXFXFXFXFXFXFXe r u H I J J J C A t t M M C R t.t.t.C C R ^ R ~ W C B ;.~ ;.pXu.t.u.P.u.u.W H FXFXFXFXFXFXFXFXFXFXFXFXFXFXFXFXFX",
"FXFXFXFXFX4 e e t m m m l V J J R Q Z A t t r V R t.y.t.C R u.~ ;.;.W u.u.u.i.pXpXpXpXpXpXi.i.u.FXFXFXFXFXFXFXFXFXFXFXFXFXFXFXFX",
"FXFXFXFX4 3 3 3 e r 4 e t A V V C C Z V V V m M r M E P.G.~ G.U.u.t.u.u.i.i.i.i.pXpXpXpXpXpXpX~.G.U.FXFXFXFXFXFXFXFXFXFXFXFXFXFX",
"FXFXFXFX4 3 3 3 e e e t u l V m C M C V V m m m m m m H P.U.G.~.i.~.i.y.i.,.:.r.u.i.~.U.i.-Xg.pXU.U.^.FXFXFXFXFXFXFXFXFXFXFXFXFX",
"FXFXFX4 4 4 M r 4 r e r t r t r M r M r r M m m E H H u F ,.y.P.~.G.y.u.;.;.W :.:.:.;.;.-.-.;.i.U.r.U.!.FXFXFXFXFXFXFXFXFXFXFXFX",
"FXFX4 1 3 4 3 4 4 q q q q q e e r q q 0 q q r m H E ~ ~ Y E y.y.i.-XP.,.;.-.B B :.B N :.B W P I ,.>.G.^.FXFXFXFXFXFXFXFXFXFXFXFX",
"FXFX2 1 5 - 1 4 3 3 < 3 q q 0 3 3 M : M : 3 w M N B H u.~.~.U.i.u.E u.y.;.B B B B :.B m N B F V J Y ! R.dXFXFXFXFXFXFXFXFXFXFXFX",
"FXFX1 - - ; ; - - - - - 0 0 0 6 0 0 : q M : M N N m B B ;.P.U.i.i.;.H B W W N B B W P H C V V C S / j.(.BXNXFXFXFXFXFXFXFXFXFXFX",
"FX1 - - ; ; ; & * & - - - : = 0 0 0 : 3 : M w w m f N B P P -.-.W ;.-.B N B N m m B H Y I I C J h.j.k.yXNXCXmXFXFXFXFXFXFXFXFXFX",
"FX1 ; ; & & & & & * & & * * * * - - : : 3 0 q w w N w N X.P P ;.W B B B N N m u m m J Q / Y T j.k.M.yXvXSXSXMXFXFXFXFXFXFXFXFXFX",
"FX& @ X X @ @ & # # @ @ * * * * - : 7 7 4 4 l i i x u f F L P P P H N N F u u F u V R T / z.j.K./.}.vXAXVXSXSXbXFXFXFXFXFXFXFXFX",
"FXX . .         +   # # @ @ * * : M t G G T z S T T T G J Y $.I F F N H F H V H G S / j.j.H.R.{.xXMXZXVXVXVXVXbXFXFXFXFXFXFXFXFX",
"; X .   #           + + # * * : q m I >.n.j.j.n.m.n.m.n.b.l.l.h.Y Y I I I Y / Y l.j.j.H.J.[.0XmXNXZXZXSXSXSXVXAXbXFXFXFXFXFXFXFX",
"FX$ . + #         + + + # @ * : w H >.H.M.M.k.(./.(.(./.).(.J.m.c.b.b.b.b.b.z.H.R.H.J._.{.8XcXDXCXDXCXZXCXZXAXMXBXFXFXFXFXFXFXFX",
"FX                    + + $ * : y K b.H.M.M.M.(././././._._._._.).R.T.R.R.).).'.].{.8XaXlXlXMXNXCXCXCXCXMXMXMXbXBXxXFXFXFXFXFXFX",
"FX                    + @ @ * 8 f I >.H.m.(.M.(././././._./._._._.].].{.{.{.7X}.8X8XjXjXlXnXcXMXMXMXNXNXMXcXvXvXxXjXFXFXFXFXFXFX",
"FX.                 + + @ @ $ : d H >.m.H.M.M.M.(.'._././._._._._.].].{.7XwX}.8X8X8X8XkXkXlXlXcXcXcXmXmXzXzXxXxXhXaXFXFXFXFXFXFX",
"$ X                 + @ @ $ : 8 d L >.v.S.m.m.M.M.J._._.'.'.'.'.].].6XwX7X8X8X8X8XqXqXqXiXkXlXnXiXcXlXlXkXjXjXhXhXgXaXFXFXFXFXFX",
"; @ .         o         @ * : : y B =.x.v.m.m.m.n.m.M.'.).`.`.,X,X2X2X0X0X0XwX0X0X0X0X0X0XqXsXsXlXiXuXuXuXyXyXyXgXgXgXFXFXFXFXFX",
"FX; X .               o + $ * : w N L $.c.m.m.m.m.n.m.S.W.'.`.W.`.,X<X<X<X5X9X0X0X9X9X5X5X9X0XqXqXwXuXwXyXyXyXyXhXhXhX}.FXFXFXFX",
"FXFXX .   .             + @ @ : 6 d c U l.c.m.v.m.m.S.m.W.W.W.W.W.$X,X<X*X3X3X4X4X4X<X<X2X2X6X9X6XwX}.uXuXiXxXxXhXvXhXxXFXFXFXFX",
"FXFXX . .   . + . .   . + @ $ = 6 w K L >.b.c.v.c.v.m.S.S.E.@X@X@X@X%X=X$X*X*X3X3X<X<X<X<X<X2XwX6XwXuXiXcXcXcXvXAXbXvXhXFXFXFXFX",
"FXFXO o o .   . . . + X @ X $ = 8 d h o.>.x.v.x.c.v.v.V.S.D.E.@X@X@X%X%X&X*X*X*X<X6X9X9X6X6X6X6X7X8XlXzXcXcXMXZXCXbXvXzXzXFXFXFX",
"FXFXn 5 O o o o X # . X @ $ % = 0 d N X.$.x.v.c.v.v.V.v.V.D.D.@X@X@X@X%X%X*X$X,X<X6X6XiXqXwX6XwX8XuXjXlXzXcXMXMXMXbXzXzXsXFXFXFX",
"FXFXK./.).z 2 O . . X X X $ $ % 6 y f K $.>.x.c.v.v.v.V.V.V.Z.@X@XXX@X=X=X$X*X,X<X6X6XwXuXuXuXuXuXuXjXxXzXBXzXBXzXsX8X[.K.R.FXFX",
"FXFXM.(._.'.S.U - o O . X $ % = 8 d c L U %.l.c.v.V.A.V.V.V.V.E.E.E.@X%X=X$X,X,X<X6XwXwXiXiXlXlXjXuXiXuXsXnXsXdX5X[.L.j.j.aXFXFX",
"FXFXh.z h.c.v.V.l n O O % < 8 7 k c b U F.F.c.v.v.V.V.V.V.S.V.E.E.@X@X=X=X$X`.,X<X6XiXiXiXiXiXnXiXiXtXtX5X4XrX1XL.>.Y j.n.}.FXFX",
"FXFXz z h.Y %.%.x 9 1 1 7 y y y f b %.F.l.c.v.v.V.V.V.V.V.V.V.V.E.E.@X$X$X*X,X,X<XrXtXtXiXiXiXiXiXrXrX<X<X*X#X0.$.<.b.z.(.aXzXFX",
"FXFXz z h.%.U U x l i y y y 7 d l L F.l.c.v.v.V.v.V.V.V.V.V.V.E.E.@X$X$X*X3X3X:XeXeXeXeXeXeXeX<XeX*X*X:X%XXX9.X.X.L Y h.(.sXBXFX",
"FXFXh.z h.b v l i i y 7 7 7 9 k x U c.c.m.m.m.v.V.S.V.D.V.V.V.Z.XX@X@X#X@X%X%X X X X X XoXOX%X%X=X=X=X%XC.6.@.j 6 9 U z.].BXNXaX",
"FXFXFXFXnXfXh.9 2 9 2 7 9 9 k l U F.c.m.m.m.S.V.S.L.V.V.V.B.B.C.0.e.e.e.q.9.4.#.2.2.O.2.[ q.C.|..X.X$XL.o.@.9.X.K %.G._.gXvXNXaX",
"FXFXFXFXDXFXFXF.z 2 2 2 9 l l v T l.c.v.m.Y.S.S.S.V.B.Z.C.0.0.6.6.4.9.8.4.2.O.{ ' ' '  .5.q.[ A..X.X,XV.l.>.<.>.<.z.J.{.gXxXBXaX",
"FXFXFXFXFXFXFXFXFXl 2 2 l l z b %.x.c.v.v.S.S.E.L.B.Z.C.w.w.9.9.9.5.5.8.5.3.4.#.[ j [ [ [ 7.[ .X.X<X9X'.n.z.c.c.m.H.).{.aXxXxXaX",
"FXFXFXFXFXFXFXFXFXz 2 9 l j v b =.F.x.x.c.S.V.V.V.I.C.C.d.q.9.9.4.#.#.3. .] k : k [ [ [ A.[ x.A..X<X0XwX'.R.T.T.R._.].8XaXaXsXfX",
"FXFXFXFXFXFXFXFXFXFXl i l j j [ =.F.x.x.x.v.v.V.V.L.I.C.C.e.9.&.@.X.{ {  .} f f o.<.<.x.x.N.A.V.S.`.wXkX8X].].].7X7X7X6X7X8XaXdX",
"FXFXFXFXFXFXFXFXFXFXFXl k j [ v =.&.*.F.x.A.A.V.L.I.I.XXC.C.B.x.0.0.9.@.@.#.$.<.1.V.V.Y.E.S.v.A.S.T.2XiXzX8X}.7X7X7X0X6X2X2X2X2X",
"FXFXFXFXFXFXFXFXFXFXFXb 9 j c [ [ =.=.*.*.N.A.v.Y.E.E.@XE.L.L.B.B.Z.Z.I.+XI.I.L.Y.T.Q.Q.W.E.S.S.S.W.2X8XzXzX8X).T.Q.,X,XQ.^.^.H.",
"FXFXFXFXFXFXFXFXFXFXFXFXc k j ' [ [ o.=.*.x.x.V.S.E.E.Q.W.T.E.Y.Y.E.I.I.#XE.E.!.^.`.1X`.`.`.S.E.D.W.,X9XkXBXnXm.l.l.V.V.Y.Y.L.FX",
"FXFXFXFXFXFXFXFXFXFXFXFXj k j ' ' [ [ [ [ F.x.A.A.S.E.W.Q.W.W.=X$X$X&X*X;X1X1X1X4X4X4X1X1X*X=XW.,X,X<XwXtXmXmXsXS.U *.<.x.b.FXFX",
"FXFXFXFXFXFXFXFXFXFXFXFXFXk k ` ' [ c c [ %.*.N.B.B.V.I.E.=X=X,X*X*XeXeXeX4X4XrX4X4X3X@XD.V.S.E.D.D.,X<XtXnXnXnX`.$.L L $.<.FXFX",
"FXFXFXFXFXFXFXFXFXFXFXFXFXk k ` g ' [ c [ [ [ A.0.A.C.Z.XX@X@X%X&X*XeXeXeXeXrXrXeX*XXXN.Z.W.$X$X=X.XW.'.rXiXnXfXY.K f B :.r.FXFX",
"FXFXFXFXFXFXFXFXFXFXFXFXFXk 8 k g h ' [ [ [ +.6.0.0.w.C.C.|. X.X&X&X:X:XeXeXeX:XOXoXw.7.|.&X*X1X<X<X<X<XrXrXtX3XK 7 7 { g.FXFXFX",
"FXFXFXFXFXFXFXFXFXFXFXFXFX8 : s d g h h ` ' X.X.+.&.9.e.d.|.|.|.oXOXOXOX:X:X:X X Xd.d.f.5.f.5.6.q.w.|.OX%X&X&X0.7 6 7 r.g.FXFXFX",
"FXFXFXFXFXFXFXFXFXFXFXFXFX8 8 p s g ` ` h ' ' ' { X.2.4.6.7.7.d. X X X X X X Xd.d.f.f.f.2.] ] _ s a ' +.@.+.B c c x o.g.FXFXFXFX",
"FXFXFXFXFXFXFXFXFXFXFXFXFX: > 8 p a g ` ` ` ' ' ' ' O.O.2.2.4.8.f.d.d.|.d.d.7.5.2.2.] 2.] _ _ p p 8 h 9.&.L L v.A.<.e.r.FXFXFXFX",
"FXFXFXFXFXFXFXFXFXFXFXFXFXFXp > , s g ` g ` ` } { ' { [  .' O.2.2.2.f.f.2.p.' ( _ _ ] ] ) _ ` ' k j *.x.%.x.c.E.T.L.r.FXFXFXFXFX",
"FXFXFXFXFXFXFXFXFXFXFXFXFXFXFX( > p k g ` ` ' } { {  . . .' ' 2.2.5.5.] _ p p p _ _ ] ] ' ' [ [ [ [ N.x.v.S.H.T.E.L.r.FXFXFXFXFX",
"FXFXFXFXFXFXFXFXFXFXFXFXFXFXFXFX( _ p a a h { } { ' { 2.2.2. . .[ f.5._ p a ] 2.[ [ [ [ [ +.[ w.A.D.Z.E.D.S.T.T.!.U.FXFXFXFXFXFX",
"FXFXFXFXFXFXFXFXFXFXFXFXFXFXFXFXFX_ _ s a ` } } { } ' O.2.2.2.' [ 5.7.[ [ 5.q.d.s.d.s.d.q.q.e.e.|.|.Z.Z.c.b.m.R.!.i.FXFXFXFXFXFX",
"FXFXFXFXFXFXFXFXFXFXFXFXFXFXFXFXFXFX_ _ a a g } } { { { 2.2.2.2.5.2.q.d.d.d. X XoX XoXoX|.s.s.s.|.A.N.*.%.b.R.[.!.FXFXFXFXFXFXFX",
"FXFXFXFXFXFXFXFXFXFXFXFXFXFXFXFXFXFXFX| _ _ a g g } } { [ O.2.3.[ 5.4.q.w.C.|. X|.|.|.|.s.s.q.q.4.+.K x G b.[.[.~.FXFXFXFXFXFXFX",
"FXFXFXFXFXFXFXFXFXFXFXFXFXFXFXFXFXFXFXFXFXp.| ) ) ) g ` ' O.O.2.[ q.4.q.q.w.|.|.XX|.|.|.s.d.q.+.[ c x U j.J.4X1XFXFXFXFXFXFXFXFX",
"FXFXFXFXFXFXFXFXFXFXFXFXFXFXFXFXFXFXFXFXFXFXp.| } ) ) ` ] ' { O.5.f.5.q.6.q.w.|.+XXXOXOXXXXXe.&.o.L %.c.T.`.1X-XFXFXFXFXFXFXFXFX",
"FXFXFXFXFXFXFXFXFXFXFXFXFXFXFXFXFXFXFXFXFXFXFXFXp.| | } ) } } { [ [ [ 5.4.6.7.w.|.OXOXOX%XOXXXV.V.B.S.Q.^.;X#XFXFXFXFXFXFXFXFXFX",
"FXFXFXFXFXFXFXFXFXFXFXFXFXFXFXFXFXFXFXFXFXFXFXFXFXFXFXp...| ..| } } } { ] 2.3.q.d.oXOX>X>X>X>X#X&X$X#X$XE.U.FXFXFXFXFXFXFXFXFXFX",
"FXFXFXFXFXFXFXFXFXFXFXFXFXFXFXFXFXFXFXFXFXFXFXFXFXFXFXFXFXa.p._ | | | | _ _ )  .5.q.s.g.g.>XOX>XOXXX+Xr.q.FXFXFXFXFXFXFXFXFXFXFX",
"FXFXFXFXFXFXFXFXFXFXFXFXFXFXFXFXFXFXFXFXFXFXFXFXFXFXFXFXFXFXFXFXFXFX( ( ( > ( , _ ....f.f.f.r.8.9.4.#.FXFXFXFXFXFXFXFXFXFXFXFXFX",
"FXFXFXFXFXFXFXFXFXFXFXFXFXFXFXFXFXFXFXFXFXFXFXFXFXFXFXFXFXFXFXFXFXFXFXFXFXFXFXFXFXFXFXFXFXFXFXFX....FXFXFXFXFXFXFXFXFXFXFXFXFXFX"
};
