/* XPM */
static char *_0681e2b00a046d5efd4847ae3a7e5e6woSQ2aBEa67FkeeK[] = {
/* columns rows colors chars-per-pixel */
"70 70 10 1 ",
"  c #B9DFEA",
". c #B7E2EB",
"X c #BAE2E9",
"o c #BAE3E9",
"O c #B9E1EB",
"+ c #BAE3EA",
"@ c #BBE0EC",
"# c #BAE2EC",
"$ c #BBE2EC",
"% c #BBE3ED",
/* pixels */
"O##OO#####OOO##O  %####### #% % # ## ###O##OO#OOO#OOOOOOOOOOOOOOOO##OO",
"#################X#%########%%%### ## ##O#OO#OOOoX##O#% O%%OO%O%#####O",
"###O ## ########%OOO#%%%%%##%%%%#%#%O########OOO####### %O%%XO%O##% #O",
"################ %OO#  # %  %     %###OO## ##OOOOX%O ##%O%OO%XO%#O# ##",
"O## %# ##OOOOOOOOOOOOOOO %OOOO# ###%OOO ###   XOOO% #  ## # OXOO #O#OO",
" # ####%###O###OOOOOOOOO %O#OO% ####%OX   # # %%OO  % X O###%%XO## ##O",
"#%###  ##OOOOOOOOOOOOOOO#%       %%% %#%#  X% % O% %# O%OO #% #%# ##O ",
"  ####%##OOOOOOO OOOOOOO %### %        %## %% ##X#X % OO# % X % %  #  ",
"######OO#O###OOOOOOOO%OOOOOOOOOO#%%%O#OOO#######%OOOO%##% # #%O###O###",
"####OOO##OO##OOOOOOOOOO% OOOO% O  ####OO##O#OO#OO%O%O#OOOO## ###O#OO##",
"#O##### #OO##OOOOOOOOOOO% OOOOOO%% %############%O%O%OO#%OX##########O",
"OO#OOO# O###O#OO%OOOOOOO%#OOOOOO#%  OOO#OOOOOOOOOOOOOOOOOO# OOO#OOOOOO",
" %#%O##O###OOO#OOOOO%OOOOOOOOOOO ##OO## ########%#####################",
"%#% #OOO#OO#OOOOOOOOOOOOOOOOOOOO # O%O##OOOOOOOO OOOOOOOOOOOOOOOOOOOOO",
"######OO#OO#OOOOOOOOOOOOOOOOOOO ###O OO OOOOOO##OOOOOOOOOOOOOOOOOOOOOO",
"####OO#OOOOOOOOOOOOOOOOOOOOOOO%% ###%OX##############################O",
"#O%# OOOOX%OOOOOOOOOOOOOOOOOOO%O%%%OOOOOOOOOOO#OO##OOOOOOOOOOOOOOOOOOO",
"#O#%#OOO%OOO#OOOOOOOOOOOOOOOOOOO #XOOO%OO%O%OOOO %####O###O####OO###OO",
"####OOOOOOOOOOOOOOOOOOOOO#OOO##O% O%%OO%%O%OOX##O############# ######O",
"##O OOOOO# O#OOOOOOOOOOOO#OOOO## O %O%%OOOOOOOO#OOOO## #OOOO# ##OO#OOO",
"##% OO##%OOOOOOOOOOOOOOOO#OOOO##%###X#%O%OO%O#O##O###O######O##O#####O",
"####OO##OOOOOOOOOOOOO#OO###OO###X%##O%#%O%OOOOO##O#O% #########O#####O",
"### OOO#%OOOOOOOOOOOOO O##OOO#######%O%O%O%O#O##OO##X################O",
"##% OOO#OOOOOOOOOOO OOOO##OOO#OO####O%O%O%O%#OO#OO##%%###############O",
"### OOO#OOOOOOOOOOOOO#OOO#OO############OOO###O##OO#####OO##O#OO ###OO",
"##% OOOOOOOOOOOOOOOOO#OO##OO##OO########## ## O# #O###  ####O## #####O",
"#%%#OO##OOOOOOOOO  OOOOOOOOOOO####### ####O#.OOO### #.#O#OO#######%%##",
"%  %OO##OO##OOOOOOOO##OO##OOOO############## ###% #################X#O",
"#  % %O#OOO#OOOOOOOOOOOOO#OOOO##O########OO####%####OO#O### ###OOOX%OO",
"#% %##O##O##OOOOOOOO##O####OOO## ####OOOOO#O# # ### #OOO#OO## OOOO# OO",
"###% OO#####O%OOO#O#O###OOO# %##%##O###O#O##O#OO#####O#O##O#OO##OOOOOO",
" ####OOO##O#O%O%O#####O#####%O###########OOOO#O# #. # #O#OO#OO# OOOOOO",
"OOO%O####### #O#OOO%O%O%O%O%O%O%###O#  #%O%%OOO%O%O% % O% ##### OOOOOO",
"O%O %######### #%O%O%O%O%O%O%O%O##O#O%%#O%OOO%%OXOOO%#%OOO % #O#OOOOOO",
"%O%%OX######O##O%OO%O%O%O%O%O%O%## O%OOOX##%O%O%X%OOOX%#%O X#OOOOOOOOO",
"O%  %#O#####O###XO%O%O%O%O%O%O%O## # O%OOO%#%O%O%O%O%OOXOO%%OOOO%OOOOO",
"O %%OO#OOO#O########O%O%O%O%O%O%O%O%%OoXXXXXXX%OOO%O%XOXOXXX#O%O%OOOOO",
"%O%XOO###O###### %##%O%O%OOO%O%O%O%OOOOO%OOXX%O%XOO%XXX%O%O%O#OXOOO%OO",
"## #OOOOOO#OOOOO####O%O%O%O%O%O%O%O%X%OO%XOXO%%OOOOOOX#O%O%OOOXXOOOO%O",
"##O##% ###%#OOOO####%O%O%O%O%O%O%OOOXoOXO%X%OOOOo%OOoO%OOOOOOO#XO#XOOO",
"O#O#OO  #O#OOOOO# ######O%O%O%O%O%O%X%OOO#X%X#%%OOXXX%oO%OO%O%O%%OOX#%",
"####O#%%###O#OO#########%O%O%O%O%O%OOX%OXXOXO#XX%%#OX#X%XOXOOOXXOOOO# ",
"O### %%%O#OO#OO#########O%O%O%O%O%O%%XXOXOO%XXXXXX%X#%OOX%%OX%OOOOOO%#",
"###O%   O###OOOO########%O%O%O%O%O%OX#XO%OXX%#XXOXOO%O%O#OO%XOOXO%OO# ",
"##OO%   ####OOO##O#O####%O%%O%O%O%O%OXXOXXO%OXXOXXXOO%O%%OOXOOXXO%OOOO",
"##O# %%%O##OOOO##O##O##OOOOOOO%O%O%OXXOO%O%O#XX%O%O%%O%OOOXXX%#XX%OOoO",
"##O#%#%%O##O##OOO###O##O%O%O%O%OO%O%X%OOX%O%%XXXXO%OO%%O%OX%O%%X%O%OXO",
"### # # ###O#O##O#######O%O%O%O%%O%O%X%OXO%O#OX#%%O%O%O%OOXO%OOO%XOOOO",
"##O###### ###OO#O%O%O%O%OO%O%OOO%O %XX%OO%#X%OO%XOXoXO%XO%X%O#X%## OOO",
"##O#%# #### #OO#OO%O%O%O%OO%OO%OO#% X%OOo#XXX%OOO%XXXOO%OOXOoXOXO###XO",
"##OO  X%#  #OOOOO%O%O%O%%O%OO%O%O%#%OXXOXX%OXOO%OXX#O%%OXOXXX%%X##%%OO",
"#O##%% %##%##OO#OO%O%O%OO%O%%O%O%OXOX%%O#XOXX%%O%%O%X%OX%XXOOO%O ## OO",
"##O##O %### #OO#O%O%####%OOO%OO%O%O%#X%OXOX#X%O%XX%X#O#%%OOX%OO%OOOOXO",
"   #OOOO#####OO#O#%O###OO%O%O%%O%O  XXOOo%O%O%%OXO#XOOXXOO%%XOOOOOOO#O",
"%%#%OO#O#.####OOOO#O#O##O%OO%O%O%#%XXX%OO%% %OO%%O%X%O%O%X%OXO%XO%OO# ",
"%# #OO#%# %  # O#####O##%OO%O% O  %#OXOO%OO%O%OOXXOXOXXXOOOOX%XOOOOO%#",
"#%O##O#######OOOX#%#%###%O%O%O%OOOO %OOXO%OOOXO%XOO%O%#X%OO%XOO%XOOOXX",
"O O#O####OOOOOOOOO % %##O%O%O%OO %OO####OOO%X#%O#OOOO#XXO%OXXOOO%OOOOO",
"##O#OO# #O## OO#O%%O%###OO%O%OO%O%O%%O%O% #XXO%%%X%O%OoXOO%OX%O%O%O%OO",
"##O#O##%OO##%OOOO%O%####O%O%O%%O%O%OOO%O %#XO%XOOXO%O%OO%OOOXOOOOOOOOO",
"##O##%O #O#OOOO#OO%O%O%O%O%OO%OOOOOOOXOOOOXOXO%O%XOOXXOX%OX%XXXOO%OOOX",
"O#O#% OOO##O%OOOO%O%O%O%O%O%%OOOOOO%XX%O%OOOO%OOOOOOOOOOOOXOO%XX%OO%%%",
"O#O### %###O#OO#OO%O%O%O%O%OO%OOOOOOXoOOXOOXX###O%%OO%OX%XOOXOXXXXOXXX",
"O#O# % ##O#O#OO#O%O%O%O%O%O%%OO%OOO%XO%OOOXXX%XOXXO%XX%OXOXX%%X#%O%%XO",
"O#O#OO#%O%OO%OOOOO%OO%O%O%O%O%O%OOOO%OOO%O%XOXX #OXOOXXOOOOOXOXO%O%O%O",
"OOO#OO  OO%OOOO%O%O%%O%O%O%O%O%OOOOOXOOOOOXX%O##%OXOOXOOXO%OXX%#O%O%O%",
"O#OOO#% OO%OOOOOOO%OO%OOO%O%O%OOOOOOOXOOOOOXO%OOOXOOOOOOXOOOOXXX%%OO%O",
"O#O#% %%%O%OOOOO%%O%%O%%%O%O%OOOOOOOOOOOOOOOOOOOOXOXO%XO%OOOX%OXOX%XX%",
"#% % O %OO%OOOOOOO%O%O% OOO#OX# OOOOO%%O%OOO%O%O %OOOOOOXOOOXXOO%O#XXX",
"  % OO %O%OOOOO%OOOOOOOOOO# OO## %OOOOOO%OOO%OOO##XOOO%OX%OO#XX O%XXXO"
};
