/* XPM */
static char *result[] = {
/* columns rows colors chars-per-pixel */
"64 64 48 1 ",
"  c #4A1F08",
". c #4A2007",
"X c #4D230C",
"o c #51260E",
"O c #55290F",
"+ c #5C2C0F",
"@ c #4E2510",
"# c #522611",
"$ c #562A12",
"% c #5B2D15",
"& c #572C19",
"* c #5B2E18",
"= c #5E3115",
"- c #5E321A",
"; c #61310F",
": c #602F15",
"> c #602F18",
", c #633315",
"< c #693617",
"1 c #6A3817",
"2 c #64351A",
"3 c #69361A",
"4 c #66381C",
"5 c #6B3A1C",
"6 c #713D1D",
"7 c #653620",
"8 c #663921",
"9 c #6C3D21",
"0 c #713F21",
"q c #6F401F",
"w c #73411F",
"e c #6E4024",
"r c #734224",
"t c #794627",
"y c #774827",
"u c #7A4927",
"i c #754629",
"p c #794729",
"a c #77482A",
"s c #7B4B2B",
"d c #7E4E30",
"f c #7F5031",
"g c #804E2E",
"h c #804F30",
"j c #845334",
"k c #865738",
"l c #895738",
"z c #865838",
/* pixels */
"5512,2<;=-24465472933>%:::1,;,<,1112,,,,,%23359-88543>%%:,<<;;1<",
"112,:,2<2--4359777533*>>2,;<;;<,<52,;,124->34587-9543>>2,:;2;;,<",
"<%O%#O%%%%%-&297*%%%%#$%=$%%O%51<=O&OO$%%%&&%29-2,%=%##%%O%%O=5<",
"<OO:%:::2,4-%ea77&#>%:>>,,42-eu;;OO=%%=,2442%9a22$o=:>>:,252-4s,",
";O&sprrtpdd9&ia47&&ts00rysai-eu;,O%sprrtuas9&ia78&#rsr0uuasr=9a,",
"<O%h0,335992Xia48&#ht3135q94@9r;,o%hr,315rr2Xei78&#sp3315ee4Xey;",
"<O%j6>335092@es88&#gr23359e4@ey<<O%h62356992Xrd88-#st2235694#9y,",
";O%j0233554-@id98*$hr3235552Xea2,O%j0221544-@9d98-$di3236444@9a,",
":%&k0221135-Xes88&$jr423<44,@8y;;$%j9243143-@8s87*#dp3215341X4s,",
"2%*k0222535-Xes48&%fy4224<q4Xqs,,%%kr2221342X9p79-%dp4,23444X4s<",
",%-l07245,5-Xrf48-%jy4241,54@qy12$-kr2215252@9i772%hs4221<54Xqs,",
"3$*l02,,1,5,Xis48-%jy42:4,<4Xey,<$%kr2,,124,X9s482&dp2,2<,<4@eu,",
">$%jr2==,;,,Xrs892&jr4=;<,,,Xey<,O&ze2,%<;<=Xea992$dy4,:<,,,Xqy,",
",$%j52=,,<2:Xes452Ost4==1=<,X5y5,O%jr2:%,;<=.qy902#sy<=%,,,<X4yq",
"2$%jw2,;;<5:X0g35=$sr4-,=,1,X5s64$%jw42,=,1=.ei452$du4,,=,5,X4sq",
"2%*lr44<=<5% 0s95%%jp54,1,1,X4s52%%jr42,,11;.qy43%$duq4,;,<<X4s5",
">%%j52=,,=,O.0a45%%h02%,2,;+.5s42$%j52-,,::% 6093*%gr4-,,=,%.4s5",
"2%%5$#X$OOXo.rp35*$3%##$OoXXo5s44%%4%#XOOoXX 9g94*&3%#o#OOXOo4s5",
"7>9r949w65435st25>909999r9535yy44%9e995r66563p033*40079506554yu4",
"229rr0r606995653570099560509e54441erreww6655059>330r04965995q551",
"5659555<3>>3333333<13,,<2>377223365955523,2333333<135>2323374424",
"5w69953<33333<33331134233,337224366965523233363<331<5323<>3344>2",
"166065551337363<3<5133135144434316606555333535<<<<<3333913324727",
"51%%%O%%>%*>%>031>%%%%%%:%&&&29552%-%O%%*%**:>3312::%&%%%%%**>90",
"6$o:%%>>>222%9p>3%#:$>:>>>22%9s56%#>%>>:2-2-%9t<5:#%%%:%:242%4d9",
"6%%sp00puss9%pd33>$0d000ppd0-rs46%$h00ttysae-et>3:#ttt0tppai-9d4",
"0%%h03515r92@0p<<&$gt3336r07Xes51%%h03<15r92Xer33%#st3315r64#9d3",
"0%%h0>335992@ip<<:$g03>35997#rs56:$h0>315e92@et33:#gt>235694@9h5",
"6%*j0231555,Xit>3>$h07335544X9g65%*h02335592@i0<5:#hp2235544@9s5",
"6%%j02>3554-Xet:<>&h0333145,X9s16%*k02221<4-@90>5>#da2225544X8g5",
"3%:j03231<5-Xei3>>$js33>5252@5s16:*kr223525- 8t:5*$ds2,25144@3s1",
"6%>l07245252Xes,<>%hs7733255X9s51%*lr3225452@9p>1:%js3231254#7g<",
"5%*k02,,2,5-o0g<3%%ht2,,<,41o5g<3:%l03>21=5=Xqu><>$ha3,,3,<1Xea<",
"1%&jr2=,<;2,X0u13%$jr4>,,;,,.6t<<%%l07:>,;1=Xeu353#hu2,:,,,,Xes<",
"<$%j94=%<,1%.0u55:$gp4%%,,<,o5t<<%%h92::,,<=Xqu55:$gt3,%,=<<o4u1",
"3%%j022,;,5%Xrs65>$hp32,,,12X5g<<%$hr22,=<4=.ea56>#hu3,:,,12X5u1",
"<%%jr42,,<<O.rs662%gt44,,,q;o5u<1%%kr42,,<1= 0g66<%hp44,,25,X4g1",
"1%:je2=,,,,O.9u162%gr22,,,== 4g15=%j94>,2,,O 5t<6:#dr4,2,,,+.4g1",
"5%%9%#O$OOOXo6g66,$5-oOOOOXX 9g16%$e%#X$OOoo 0g<6<$9:&o$OOoo.1g<",
"1240985w555<3pu6634re44qq54q3tu11,4e945w64343tu66130944665515wg<",
"55000000r5r99r06600r009r60669r65150009rr6090900666000990ww069091",
"<533395133441556663273441333443111353453133334600612737321323331",
"333354334734,30666524733<,,2:3233233353337744356663>37332,,3:333",
"3>>9543339743335<<524393<,32=22,22375523393231555<9235931,3,>23>",
">>%>%%%%%*-&%>515>%%%$>%%%-&%>6,>:%*%%%%---&&405<>:%$%%%&=&%%%82",
"3$#%*$:%2>2-%9d5<%#%$%:%=,2-*7s,3$#%$%::%,2-%9s50:o:%%:%,-2-%2d3",
"3$%pt0rtpss9&id96%#tp00taadi29s43$$pp0ptasse%rs46%o0trtrpasi79d2",
"3$%k03115i92ois55%$ht3519e94#9s43&*h035<6r92X0a35:#ht4515r04#9s2",
"3$%h024<5992Xia41=#sr22<1993@es53%%h02315ee-@ry41%$sp22<5694#9d4",
"6%%j0>33154-Xia34=&ft43<6394Xes55%&j0>335544@9y55%$dp2235493@9d4",
"3%%l073<143=@ia8w-%fy4233442@qd55%%k0222514-@9ye5%$dp7231334@9d4",
"0&%l02225352X9a9e-%fr4235482@8s55%%ji224125-X8aer%$hp42,1344@8s9",
"3*>l074<5,q-@ea9w-%jp2445,54Xqs45%2kr422525,Xea95=$js4241,q4X9a5",
"0%%k072,<,5,Xea45-&ja22,<,14@qs<6%%kr2221,5,Xei45-$js42,1=<4@9s5",
"6%%k0>>:<=,-Xra45*&ji22%,;,,Xqa44%%je4,=,;2,.ei45$$fa2>:,=,<X5s4",
"7%%j02>,,,,-Xei45%#hi3==<,<=Xqy45%&jq<-=,,<=Xey45=$fi4>:,,,4X5u2",
"4%%j042,,,1=.ey49%#dt42=;<5,X5s44%$jr2,,,,1=.9y54%$gt5,-;11=X4s1",
"4%-zr44,;11=Xqs49%&dp32,,,1,X5s44%%kr5,,,,5=X5a53%%hu44,,,q=X1s5",
"4&=j52-,,,,+.ea44%%fr422,,,;.5s35%-k92=,,,,$.qi44%%sy2-21,=;.4s5",
"4#%9%X@$OOXX.ey44%$9=#@$OooXX5y53$$5%#OOOOOXX5i=2%$9=##$OOoo.<s4",
"1%898445q,-42as24=4e9744554,3rs3<-7e844q5444,ir,2-4984845532,rs<",
"528eeeeeqeeeeee244ee99rwqwe574534-8ee8eeee94ee5444er99eeq6044eq<",
"97----2242--8-844424-244,,-=%,445-------22--849855,42-242,**%-=4",
"4-&---,44--484e999248-444=-%&2,45-----4,42-84499ee445-242=2%%,-4"
};
